<svg width="395" height="484" viewBox="0 0 395 484" fill="none" xmlns="http://www.w3.org/2000/svg">
<g filter="url(#filter0_d_65_38)">
<rect x="30" width="325" height="399" fill="#282828"/>
</g>
<path d="M107.16 215L110.34 183H115.96L119.14 215H116.62L115.76 205.36H110.52L109.68 215H107.16ZM110.74 203.1H115.58L114.98 196.42L113.98 185.26H112.32L111.32 196.44L110.74 203.1ZM134.857 215V183H140.137C141.897 183 143.17 183.353 143.957 184.06C144.757 184.753 145.184 185.907 145.237 187.52C145.304 189.467 145.337 191.207 145.337 192.74C145.337 194.26 145.304 195.807 145.237 197.38C145.17 198.993 144.737 200.153 143.937 200.86C143.137 201.553 141.857 201.9 140.097 201.9H137.317V215H134.857ZM137.317 199.64H140.097C141.097 199.64 141.777 199.48 142.137 199.16C142.51 198.84 142.717 198.267 142.757 197.44C142.81 196.32 142.844 195.267 142.857 194.28C142.884 193.28 142.884 192.24 142.857 191.16C142.844 190.08 142.81 188.847 142.757 187.46C142.744 186.62 142.544 186.047 142.157 185.74C141.784 185.42 141.11 185.26 140.137 185.26H137.317V199.64ZM161.232 215V183H166.512C168.272 183 169.545 183.353 170.332 184.06C171.132 184.753 171.559 185.907 171.612 187.52C171.679 189.467 171.712 191.207 171.712 192.74C171.712 194.26 171.679 195.807 171.612 197.38C171.545 198.993 171.112 200.153 170.312 200.86C169.512 201.553 168.232 201.9 166.472 201.9H163.692V215H161.232ZM163.692 199.64H166.472C167.472 199.64 168.152 199.48 168.512 199.16C168.885 198.84 169.092 198.267 169.132 197.44C169.185 196.32 169.219 195.267 169.232 194.28C169.259 193.28 169.259 192.24 169.232 191.16C169.219 190.08 169.185 188.847 169.132 187.46C169.119 186.62 168.919 186.047 168.532 185.74C168.159 185.42 167.485 185.26 166.512 185.26H163.692V199.64ZM207.771 215V183H213.191C215.098 183 216.464 183.36 217.291 184.08C218.131 184.787 218.564 185.96 218.591 187.6C218.631 190.307 218.658 192.887 218.671 195.34C218.684 197.78 218.684 200.22 218.671 202.66C218.658 205.1 218.631 207.673 218.591 210.38C218.564 212.033 218.151 213.22 217.351 213.94C216.564 214.647 215.271 215 213.471 215H207.771ZM210.231 212.74H213.471C214.471 212.74 215.158 212.58 215.531 212.26C215.918 211.927 216.118 211.347 216.131 210.52C216.184 208.307 216.224 206.273 216.251 204.42C216.278 202.553 216.291 200.747 216.291 199C216.291 197.24 216.278 195.433 216.251 193.58C216.224 191.713 216.184 189.673 216.131 187.46C216.118 186.633 215.898 186.06 215.471 185.74C215.058 185.42 214.298 185.26 213.191 185.26H210.231V212.74ZM235.435 215V183H245.035V185.26H237.895V197.82H244.635V200.08H237.895V212.74H245.035V215H235.435ZM262.794 215L259.514 183H262.074L263.894 201.26L264.774 212.72H266.294L267.174 201.26L268.974 183H271.554L268.254 215H262.794Z" fill="#03DAC6"/>
<defs>
<filter id="filter0_d_65_38" x="0" y="0" width="395" height="484" filterUnits="userSpaceOnUse" color-interpolation-filters="sRGB">
<feFlood flood-opacity="0" result="BackgroundImageFix"/>
<feColorMatrix in="SourceAlpha" type="matrix" values="0 0 0 0 0 0 0 0 0 0 0 0 0 0 0 0 0 0 127 0" result="hardAlpha"/>
<feMorphology radius="5" operator="dilate" in="SourceAlpha" result="effect1_dropShadow_65_38"/>
<feOffset dx="5" dy="50"/>
<feGaussianBlur stdDeviation="15"/>
<feComposite in2="hardAlpha" operator="out"/>
<feColorMatrix type="matrix" values="0 0 0 0 0 0 0 0 0 0 0 0 0 0 0 0 0 0 0.25 0"/>
<feBlend mode="normal" in2="BackgroundImageFix" result="effect1_dropShadow_65_38"/>
<feBlend mode="normal" in="SourceGraphic" in2="effect1_dropShadow_65_38" result="shape"/>
</filter>
</defs>
</svg>
