<svg width="395" height="484" viewBox="0 0 395 484" fill="none" xmlns="http://www.w3.org/2000/svg">
<g filter="url(#filter0_d_65_35)">
<rect x="30" width="325" height="399" fill="#282828"/>
</g>
<path d="M103.52 215L101.56 183H104.04L104.66 194.38L105.56 212.72H107.04L108.16 194.38L109.3 183.2H114.44L115.56 194.38L116.68 212.72H118.18L119.12 194.38L119.78 183H122.22L120.2 215H114.74L113.78 204.12L112.62 185.42H111.16L109.94 204.12L109 215H103.52ZM138.349 215V183H147.949V185.26H140.809V197.82H147.549V200.08H140.809V212.74H147.949V215H138.349ZM163.708 215V183H169.148C171.055 183 172.428 183.36 173.268 184.08C174.122 184.8 174.555 186 174.568 187.68C174.582 189.24 174.588 190.58 174.588 191.7C174.602 192.807 174.588 193.9 174.548 194.98C174.508 196.033 174.288 196.86 173.888 197.46C173.488 198.06 172.835 198.473 171.928 198.7V199.2C172.875 199.44 173.562 199.86 173.988 200.46C174.415 201.06 174.655 201.887 174.708 202.94C174.762 204.3 174.782 205.533 174.768 206.64C174.755 207.747 174.735 208.973 174.708 210.32C174.655 211.987 174.208 213.187 173.368 213.92C172.528 214.64 171.162 215 169.268 215H163.708ZM166.168 212.68H169.268C170.402 212.68 171.168 212.507 171.568 212.16C171.982 211.813 172.202 211.193 172.228 210.3C172.282 208.967 172.308 207.747 172.308 206.64C172.308 205.533 172.282 204.32 172.228 203C172.202 201.88 171.982 201.12 171.568 200.72C171.168 200.307 170.448 200.1 169.408 200.1H166.168V212.68ZM166.168 197.78H169.528C170.502 197.78 171.168 197.573 171.528 197.16C171.888 196.733 172.082 195.993 172.108 194.94C172.148 193.62 172.162 192.4 172.148 191.28C172.148 190.16 172.135 188.94 172.108 187.62C172.095 186.713 171.875 186.093 171.448 185.76C171.035 185.427 170.268 185.26 169.148 185.26H166.168V197.78ZM211.498 215V183H216.918C218.824 183 220.191 183.36 221.018 184.08C221.858 184.787 222.291 185.96 222.318 187.6C222.358 190.307 222.384 192.887 222.398 195.34C222.411 197.78 222.411 200.22 222.398 202.66C222.384 205.1 222.358 207.673 222.318 210.38C222.291 212.033 221.878 213.22 221.078 213.94C220.291 214.647 218.998 215 217.198 215H211.498ZM213.958 212.74H217.198C218.198 212.74 218.884 212.58 219.258 212.26C219.644 211.927 219.844 211.347 219.858 210.52C219.911 208.307 219.951 206.273 219.978 204.42C220.004 202.553 220.018 200.747 220.018 199C220.018 197.24 220.004 195.433 219.978 193.58C219.951 191.713 219.911 189.673 219.858 187.46C219.844 186.633 219.624 186.06 219.198 185.74C218.784 185.42 218.024 185.26 216.918 185.26H213.958V212.74ZM239.162 215V183H248.762V185.26H241.622V197.82H248.362V200.08H241.622V212.74H248.762V215H239.162ZM266.521 215L263.241 183H265.801L267.621 201.26L268.501 212.72H270.021L270.901 201.26L272.701 183H275.281L271.981 215H266.521Z" fill="#03DAC6"/>
<defs>
<filter id="filter0_d_65_35" x="0" y="0" width="395" height="484" filterUnits="userSpaceOnUse" color-interpolation-filters="sRGB">
<feFlood flood-opacity="0" result="BackgroundImageFix"/>
<feColorMatrix in="SourceAlpha" type="matrix" values="0 0 0 0 0 0 0 0 0 0 0 0 0 0 0 0 0 0 127 0" result="hardAlpha"/>
<feMorphology radius="5" operator="dilate" in="SourceAlpha" result="effect1_dropShadow_65_35"/>
<feOffset dx="5" dy="50"/>
<feGaussianBlur stdDeviation="15"/>
<feComposite in2="hardAlpha" operator="out"/>
<feColorMatrix type="matrix" values="0 0 0 0 0 0 0 0 0 0 0 0 0 0 0 0 0 0 0.25 0"/>
<feBlend mode="normal" in2="BackgroundImageFix" result="effect1_dropShadow_65_35"/>
<feBlend mode="normal" in="SourceGraphic" in2="effect1_dropShadow_65_35" result="shape"/>
</filter>
</defs>
</svg>
