<svg width="395" height="484" viewBox="0 0 395 484" fill="none" xmlns="http://www.w3.org/2000/svg">
<g filter="url(#filter0_d_65_34)">
<rect x="30" width="325" height="399" fill="#282828"/>
</g>
<path d="M130.74 215.24C128.807 215.24 127.42 214.867 126.58 214.12C125.74 213.373 125.307 212.147 125.28 210.44C125.227 205.813 125.2 201.24 125.2 196.72C125.2 192.2 125.227 187.627 125.28 183H127.74C127.713 186.08 127.693 189.147 127.68 192.2C127.68 195.253 127.68 198.307 127.68 201.36C127.693 204.413 127.7 207.487 127.7 210.58C127.7 211.487 127.92 212.113 128.36 212.46C128.8 212.807 129.593 212.98 130.74 212.98C131.887 212.98 132.673 212.807 133.1 212.46C133.527 212.113 133.74 211.487 133.74 210.58C133.74 207.487 133.747 204.413 133.76 201.36C133.773 198.307 133.78 195.253 133.78 192.2C133.78 189.147 133.767 186.08 133.74 183H136.2C136.253 187.627 136.28 192.2 136.28 196.72C136.293 201.24 136.267 205.813 136.2 210.44C136.187 212.147 135.753 213.373 134.9 214.12C134.06 214.867 132.673 215.24 130.74 215.24ZM153.029 215V183H155.489V215H153.029ZM171.286 223L180.066 183H182.546L173.766 223H171.286ZM223.662 215.24C221.729 215.24 220.342 214.867 219.502 214.12C218.662 213.373 218.229 212.147 218.202 210.44C218.149 205.813 218.122 201.24 218.122 196.72C218.122 192.2 218.149 187.627 218.202 183H220.662C220.635 186.08 220.615 189.147 220.602 192.2C220.602 195.253 220.602 198.307 220.602 201.36C220.615 204.413 220.622 207.487 220.622 210.58C220.622 211.487 220.842 212.113 221.282 212.46C221.722 212.807 222.515 212.98 223.662 212.98C224.809 212.98 225.595 212.807 226.022 212.46C226.449 212.113 226.662 211.487 226.662 210.58C226.662 207.487 226.669 204.413 226.682 201.36C226.695 198.307 226.702 195.253 226.702 192.2C226.702 189.147 226.689 186.08 226.662 183H229.122C229.175 187.627 229.202 192.2 229.202 196.72C229.215 201.24 229.189 205.813 229.122 210.44C229.109 212.147 228.675 213.373 227.822 214.12C226.982 214.867 225.595 215.24 223.662 215.24ZM244.351 215L247.811 198.78L244.531 183H246.951L248.451 190.56L249.651 197.72H250.871L252.051 190.56L253.531 183H255.951L252.731 198.82L256.131 215H253.731L252.111 207.08L250.871 199.98H249.651L248.391 207.08L246.771 215H244.351Z" fill="#03DAC6"/>
<defs>
<filter id="filter0_d_65_34" x="0" y="0" width="395" height="484" filterUnits="userSpaceOnUse" color-interpolation-filters="sRGB">
<feFlood flood-opacity="0" result="BackgroundImageFix"/>
<feColorMatrix in="SourceAlpha" type="matrix" values="0 0 0 0 0 0 0 0 0 0 0 0 0 0 0 0 0 0 127 0" result="hardAlpha"/>
<feMorphology radius="5" operator="dilate" in="SourceAlpha" result="effect1_dropShadow_65_34"/>
<feOffset dx="5" dy="50"/>
<feGaussianBlur stdDeviation="15"/>
<feComposite in2="hardAlpha" operator="out"/>
<feColorMatrix type="matrix" values="0 0 0 0 0 0 0 0 0 0 0 0 0 0 0 0 0 0 0.25 0"/>
<feBlend mode="normal" in2="BackgroundImageFix" result="effect1_dropShadow_65_34"/>
<feBlend mode="normal" in="SourceGraphic" in2="effect1_dropShadow_65_34" result="shape"/>
</filter>
</defs>
</svg>
