<svg width="323" height="317" viewBox="0 0 323 317" fill="none" xmlns="http://www.w3.org/2000/svg">
<ellipse cx="161.5" cy="158.453" rx="161.5" ry="158.453" fill="#6200EE"/>
<g clip-path="url(#clip0_73_34)">
<path d="M230.223 225.441H149.473V118.385L219.294 155.855L230.223 225.441Z" fill="#2F2E41"/>
<path d="M164.39 206.546C193.344 206.546 216.816 183.553 216.816 155.19C216.816 126.827 193.344 103.834 164.39 103.834C135.436 103.834 111.964 126.827 111.964 155.19C111.964 183.553 135.436 206.546 164.39 206.546Z" fill="#FFB6B6"/>
<path d="M134.294 214.141L131.925 190.687L179.222 182.024L207.151 248.636L158.58 303.353L123.973 236.741L134.294 214.141Z" fill="#FFB6B6"/>
<path d="M277.489 268.287C276.9 268.888 276.299 269.482 275.698 270.071C273.791 271.939 271.848 273.753 269.863 275.513C240.113 301.944 201.942 316.408 161.5 316.408C124.215 316.408 88.8614 304.115 60.2589 281.484C60.2407 281.472 60.2286 281.461 60.2103 281.443C59.3421 280.759 58.4861 280.063 57.63 279.355C57.7818 278.927 57.9457 278.505 58.1097 278.088C67.3078 254.613 85.4736 243.129 96.4993 238.103C101.964 235.611 105.673 234.701 105.673 234.701L118.617 211.863L127.731 228.516L134.446 240.791L161.998 291.149L185.768 233.173L193.132 215.199L195.02 210.596L204 217.441L212.5 223.918L229.615 227.618L243.501 230.621L262.359 234.701C269.984 240.785 274.623 252.359 277.215 266.74C277.312 267.252 277.404 267.769 277.489 268.287Z" fill="#6C63FF"/>
<path d="M136.813 96.8275C143.199 86.3195 154.928 79.1097 167.365 78.047C179.801 76.9844 192.627 82.0962 200.774 91.3626C205.628 96.8844 208.812 103.647 213.544 109.27C223.727 121.37 241.091 128.446 245.539 143.51C247.481 150.084 246.513 157.102 245.531 163.878C244.689 169.685 243.847 175.492 243.006 181.299C242.35 185.818 241.722 190.583 243.452 194.821C245.482 199.794 250.338 203.051 253.479 207.434C258.822 214.894 258.432 225.814 252.568 232.889C250.026 235.957 246.654 238.271 243.989 241.237C241.323 244.203 239.345 248.258 240.462 252.056C242.601 259.33 254.247 261.075 255.524 268.541C256.177 272.358 253.486 276.17 249.959 277.916C246.433 279.661 242.282 279.712 238.359 279.245C223.452 277.47 209.649 268.345 202.391 255.467C195.133 242.589 194.605 226.285 201.014 212.981C206.278 202.055 216.062 192.4 215.956 180.318C215.897 173.736 212.816 167.588 209.802 161.705C203.634 149.664 197.466 137.623 191.298 125.582C187.994 119.132 184.159 112.181 177.357 109.41C172.1 107.268 166.135 108.099 160.512 108.975C154.889 109.851 148.933 110.703 143.66 108.599C138.387 106.495 134.403 100.243 136.916 95.238" fill="#2F2E41"/>
<path d="M146 97.3762C135.872 94.1102 124.509 99.3533 117.652 107.353C110.795 115.352 107.469 125.615 104.3 135.589C102.485 141.302 100.67 147.015 98.8547 152.728C97.1473 158.103 95.4398 163.477 93.7324 168.851C91.7241 175.173 89.6993 181.889 91.3475 188.309C92.5391 192.951 95.6052 197.166 95.6712 201.952C95.7401 206.951 92.5441 211.34 89.7433 215.52C86.9425 219.699 84.3133 224.665 85.6478 229.491C87.6775 236.831 98.0954 240.866 97.5243 248.45C97.3337 250.981 95.8396 253.322 95.8667 255.86C95.9012 259.089 98.4819 261.879 101.505 263.166C104.529 264.452 107.93 264.522 111.226 264.465C121.336 264.291 131.427 263.115 141.297 260.961C145.094 260.132 148.955 259.115 152.116 256.894C155.276 254.672 157.634 250.991 157.223 247.202C156.582 241.297 150.101 237.946 146.83 232.947C143.617 228.036 143.692 221.813 142.306 216.14C140.402 208.344 135.7 201.538 132.171 194.306C118.9 167.116 123.546 132.459 143.532 109.547C145.299 107.521 147.229 105.483 147.967 102.918C148.704 100.353 147.753 97.0851 145.192 96.1879" fill="#2F2E41"/>
<path d="M275.698 46.3371C245.195 16.4568 204.637 0 161.5 0C118.363 0 77.8054 16.4568 47.3025 46.3371C16.7996 76.2175 0 115.947 0 158.204C0 196.774 13.9946 233.238 39.6403 262.03C42.0871 264.784 44.6432 267.466 47.3025 270.071C47.9279 270.684 48.5593 271.296 49.1968 271.891C50.8968 273.503 52.6271 275.079 54.3879 276.607C55.4565 277.541 56.5371 278.457 57.63 279.355C58.4861 280.063 59.3421 280.759 60.2104 281.443C60.2286 281.461 60.2407 281.472 60.2589 281.484C88.8614 304.115 124.215 316.408 161.5 316.408C201.942 316.408 240.113 301.944 269.863 275.513C271.848 273.753 273.791 271.939 275.698 270.071C276.299 269.482 276.9 268.887 277.489 268.287C279.128 266.633 280.719 264.95 282.273 263.243C308.605 234.267 323 197.321 323 158.204C323 115.947 306.2 76.2175 275.698 46.3371V46.3371ZM281.878 261.762C280.36 263.451 278.806 265.117 277.215 266.74C274.738 269.268 272.182 271.718 269.541 274.08C268.539 274.984 267.525 275.864 266.499 276.738C256.135 285.57 244.6 293.112 232.159 299.119C227.794 301.23 223.319 303.151 218.741 304.87C200.958 311.555 181.657 315.219 161.5 315.219C142.047 315.219 123.396 311.805 106.135 305.56C99.0493 303.002 92.2007 299.963 85.6254 296.484C84.66 295.972 83.7007 295.455 82.7475 294.926C77.7325 292.142 72.8814 289.103 68.2246 285.82C64.7457 283.376 61.37 280.8 58.1097 278.088C56.9682 277.143 55.839 276.185 54.7279 275.204C52.9186 273.628 51.1457 272.004 49.4154 270.339C46.1368 267.192 43.0039 263.915 40.0107 260.507C15.8404 233.006 1.21429 197.25 1.21429 158.204C1.21429 71.626 73.1182 1.1895 161.5 1.1895C249.882 1.1895 321.786 71.626 321.786 158.204C321.786 197.85 306.71 234.106 281.878 261.762Z" fill="#3F3D56"/>
</g>
<defs>
<clipPath id="clip0_73_34">
<rect width="323" height="316.408" fill="white"/>
</clipPath>
</defs>
</svg>
