<svg width="1305" height="741" viewBox="0 0 1305 741" fill="none" xmlns="http://www.w3.org/2000/svg">
<path d="M0 0H1305V369.377L643.438 741L0 369.377V0Z" fill="#6200EE"/>
<path d="M465.64 91L463.26 59H467.16L467.94 71.68L468.72 87.52H470.36L471 71.68L472.8 59.2H479.28L481.08 71.68L481.72 87.52H483.36L484.16 71.68L484.98 59H488.86L486.44 91H478.92L477.74 80.9L476.86 62.56H475.24L474.34 80.9L473.16 91H465.64ZM504.406 91V59H508.286V73.12H513.966V59H517.846V91H513.966V76.58H508.286V91H504.406ZM533.152 91L536.852 59H544.312L547.992 91H544.012L543.232 82.54H537.912L537.132 91H533.152ZM538.252 79.08H542.892L542.252 72.24L541.452 62.46H539.692L538.892 72.24L538.252 79.08ZM565.058 91V62.46H560.018V59H573.958V62.46H568.938V91H565.058ZM608.656 91V59H612.536V91H608.656ZM629.672 68.04L631.812 63.36H628.652V59H634.812V62.96L632.112 68.04H629.672ZM650.898 91V59H658.758L660.838 71.86L661.918 87.44H663.198L664.238 71.86L666.358 59H674.178V91H670.198V81.04L670.798 62.46H669.058L667.078 81.76L665.258 90.9H659.738L658.018 81.76L656.038 62.46H654.298L654.878 81.04V91H650.898ZM711.265 91V59H717.925C720.272 59 721.959 59.4733 722.985 60.42C724.025 61.3533 724.565 62.8933 724.605 65.04C724.645 67.4133 724.672 69.6667 724.685 71.8C724.699 73.9333 724.699 76.0667 724.685 78.2C724.672 80.32 724.645 82.5667 724.605 84.94C724.565 87.1 724.039 88.6533 723.025 89.6C722.012 90.5333 720.365 91 718.085 91H711.265ZM715.145 87.54H718.085C719.019 87.54 719.685 87.3667 720.085 87.02C720.499 86.66 720.712 86.0867 720.725 85.3C720.779 83.4067 720.812 81.62 720.825 79.94C720.852 78.2467 720.865 76.5933 720.865 74.98C720.865 73.3667 720.852 71.72 720.825 70.04C720.812 68.3467 720.779 66.5533 720.725 64.66C720.712 63.8867 720.492 63.3267 720.065 62.98C719.639 62.6333 718.925 62.46 717.925 62.46H715.145V87.54ZM747.6 91.3C745.2 91.3 743.466 90.8133 742.4 89.84C741.333 88.8667 740.78 87.26 740.74 85.02C740.713 83.1267 740.693 81.36 740.68 79.72C740.666 78.08 740.66 76.4867 740.66 74.94C740.66 73.38 740.666 71.7933 740.68 70.18C740.693 68.5533 740.713 66.82 740.74 64.98C740.78 62.7267 741.333 61.12 742.4 60.16C743.466 59.1867 745.2 58.7 747.6 58.7C749.973 58.7 751.686 59.1867 752.74 60.16C753.806 61.12 754.366 62.7267 754.42 64.98C754.473 66.82 754.506 68.5533 754.52 70.18C754.546 71.7933 754.56 73.38 754.56 74.94C754.56 76.5 754.546 78.1 754.52 79.74C754.506 81.3667 754.473 83.1267 754.42 85.02C754.366 87.26 753.806 88.8667 752.74 89.84C751.686 90.8133 749.973 91.3 747.6 91.3ZM747.6 88.04C748.68 88.04 749.433 87.8333 749.86 87.42C750.3 87.0067 750.526 86.26 750.54 85.18C750.606 83.2733 750.653 81.4933 750.68 79.84C750.706 78.1867 750.72 76.58 750.72 75.02C750.72 73.4467 750.706 71.8333 750.68 70.18C750.653 68.5133 750.606 66.7267 750.54 64.82C750.526 63.7533 750.3 63.0067 749.86 62.58C749.433 62.1533 748.68 61.94 747.6 61.94C746.52 61.94 745.76 62.1533 745.32 62.58C744.88 63.0067 744.646 63.7533 744.62 64.82C744.566 66.6867 744.526 68.44 744.5 70.08C744.473 71.72 744.46 73.3267 744.46 74.9C744.46 76.4733 744.473 78.0933 744.5 79.76C744.526 81.4267 744.566 83.2333 744.62 85.18C744.646 86.26 744.88 87.0067 745.32 87.42C745.76 87.8333 746.52 88.04 747.6 88.04ZM770.89 91V59H774.77V91H770.89ZM791.406 91V59H798.746L800.686 69.14L803.246 87.52H804.966L804.386 70.92L804.146 59H808.046V91H800.446L798.386 79.78L796.266 62.44H794.486L795.006 78.96L795.306 91H791.406ZM831.395 91.3C829.768 91.3 828.448 91.0933 827.435 90.68C826.435 90.2667 825.702 89.6067 825.235 88.7C824.768 87.7933 824.515 86.6067 824.475 85.14C824.435 83.5133 824.402 81.8533 824.375 80.16C824.362 78.4667 824.355 76.7667 824.355 75.06C824.355 73.34 824.362 71.6333 824.375 69.94C824.402 68.2467 824.435 66.6 824.475 65C824.515 63.4933 824.768 62.28 825.235 61.36C825.715 60.4267 826.448 59.7533 827.435 59.34C828.435 58.9133 829.748 58.7 831.375 58.7C833.748 58.7 835.455 59.1733 836.495 60.12C837.535 61.0533 838.108 62.62 838.215 64.82C838.255 65.74 838.275 66.6533 838.275 67.56C838.275 68.4667 838.255 69.3867 838.215 70.32H834.335C834.375 69.2533 834.395 68.2733 834.395 67.38C834.395 66.4867 834.375 65.5133 834.335 64.46C834.295 63.5133 834.068 62.86 833.655 62.5C833.242 62.1267 832.482 61.94 831.375 61.94C830.242 61.94 829.462 62.1267 829.035 62.5C828.622 62.86 828.395 63.5133 828.355 64.46C828.288 66.3133 828.242 68.1067 828.215 69.84C828.188 71.5733 828.175 73.2867 828.175 74.98C828.175 76.6733 828.188 78.3867 828.215 80.12C828.242 81.8533 828.288 83.6533 828.355 85.52C828.395 86.4667 828.622 87.1267 829.035 87.5C829.462 87.86 830.248 88.04 831.395 88.04C832.582 88.04 833.395 87.86 833.835 87.5C834.275 87.1267 834.522 86.4667 834.575 85.52C834.588 84.9467 834.595 84.38 834.595 83.82C834.608 83.26 834.608 82.7 834.595 82.14C834.595 81.58 834.588 81.0133 834.575 80.44H831.635V76.98H838.375C838.415 78.5267 838.428 79.9667 838.415 81.3C838.402 82.6333 838.375 83.9133 838.335 85.14C838.255 87.3533 837.682 88.9333 836.615 89.88C835.562 90.8267 833.822 91.3 831.395 91.3Z" fill="white"/>
<g filter="url(#filter0_d_182_4)">
<rect x="933" y="155" width="325" height="399" fill="#282828"/>
</g>
<path d="M1010.16 370L1013.34 338H1018.96L1022.14 370H1019.62L1018.76 360.36H1013.52L1012.68 370H1010.16ZM1013.74 358.1H1018.58L1017.98 351.42L1016.98 340.26H1015.32L1014.32 351.44L1013.74 358.1ZM1037.86 370V338H1043.14C1044.9 338 1046.17 338.353 1046.96 339.06C1047.76 339.753 1048.18 340.907 1048.24 342.52C1048.3 344.467 1048.34 346.207 1048.34 347.74C1048.34 349.26 1048.3 350.807 1048.24 352.38C1048.17 353.993 1047.74 355.153 1046.94 355.86C1046.14 356.553 1044.86 356.9 1043.1 356.9H1040.32V370H1037.86ZM1040.32 354.64H1043.1C1044.1 354.64 1044.78 354.48 1045.14 354.16C1045.51 353.84 1045.72 353.267 1045.76 352.44C1045.81 351.32 1045.84 350.267 1045.86 349.28C1045.88 348.28 1045.88 347.24 1045.86 346.16C1045.84 345.08 1045.81 343.847 1045.76 342.46C1045.74 341.62 1045.54 341.047 1045.16 340.74C1044.78 340.42 1044.11 340.26 1043.14 340.26H1040.32V354.64ZM1064.23 370V338H1069.51C1071.27 338 1072.55 338.353 1073.33 339.06C1074.13 339.753 1074.56 340.907 1074.61 342.52C1074.68 344.467 1074.71 346.207 1074.71 347.74C1074.71 349.26 1074.68 350.807 1074.61 352.38C1074.55 353.993 1074.11 355.153 1073.31 355.86C1072.51 356.553 1071.23 356.9 1069.47 356.9H1066.69V370H1064.23ZM1066.69 354.64H1069.47C1070.47 354.64 1071.15 354.48 1071.51 354.16C1071.89 353.84 1072.09 353.267 1072.13 352.44C1072.19 351.32 1072.22 350.267 1072.23 349.28C1072.26 348.28 1072.26 347.24 1072.23 346.16C1072.22 345.08 1072.19 343.847 1072.13 342.46C1072.12 341.62 1071.92 341.047 1071.53 340.74C1071.16 340.42 1070.49 340.26 1069.51 340.26H1066.69V354.64ZM1110.77 370V338H1116.19C1118.1 338 1119.46 338.36 1120.29 339.08C1121.13 339.787 1121.56 340.96 1121.59 342.6C1121.63 345.307 1121.66 347.887 1121.67 350.34C1121.68 352.78 1121.68 355.22 1121.67 357.66C1121.66 360.1 1121.63 362.673 1121.59 365.38C1121.56 367.033 1121.15 368.22 1120.35 368.94C1119.56 369.647 1118.27 370 1116.47 370H1110.77ZM1113.23 367.74H1116.47C1117.47 367.74 1118.16 367.58 1118.53 367.26C1118.92 366.927 1119.12 366.347 1119.13 365.52C1119.18 363.307 1119.22 361.273 1119.25 359.42C1119.28 357.553 1119.29 355.747 1119.29 354C1119.29 352.24 1119.28 350.433 1119.25 348.58C1119.22 346.713 1119.18 344.673 1119.13 342.46C1119.12 341.633 1118.9 341.06 1118.47 340.74C1118.06 340.42 1117.3 340.26 1116.19 340.26H1113.23V367.74ZM1138.44 370V338H1148.04V340.26H1140.9V352.82H1147.63V355.08H1140.9V367.74H1148.04V370H1138.44ZM1165.79 370L1162.51 338H1165.07L1166.89 356.26L1167.77 367.72H1169.29L1170.17 356.26L1171.97 338H1174.55L1171.25 370H1165.79Z" fill="#03DAC6"/>
<g filter="url(#filter1_d_182_4)">
<rect x="489" y="155" width="325" height="399" fill="#282828"/>
</g>
<path d="M562.52 370L560.56 338H563.04L563.66 349.38L564.56 367.72H566.04L567.16 349.38L568.3 338.2H573.44L574.56 349.38L575.68 367.72H577.18L578.12 349.38L578.78 338H581.22L579.2 370H573.74L572.78 359.12L571.62 340.42H570.16L568.94 359.12L568 370H562.52ZM597.349 370V338H606.949V340.26H599.809V352.82H606.549V355.08H599.809V367.74H606.949V370H597.349ZM622.708 370V338H628.148C630.055 338 631.428 338.36 632.268 339.08C633.122 339.8 633.555 341 633.568 342.68C633.582 344.24 633.588 345.58 633.588 346.7C633.602 347.807 633.588 348.9 633.548 349.98C633.508 351.033 633.288 351.86 632.888 352.46C632.488 353.06 631.835 353.473 630.928 353.7V354.2C631.875 354.44 632.562 354.86 632.988 355.46C633.415 356.06 633.655 356.887 633.708 357.94C633.762 359.3 633.782 360.533 633.768 361.64C633.755 362.747 633.735 363.973 633.708 365.32C633.655 366.987 633.208 368.187 632.368 368.92C631.528 369.64 630.162 370 628.268 370H622.708ZM625.168 367.68H628.268C629.402 367.68 630.168 367.507 630.568 367.16C630.982 366.813 631.202 366.193 631.228 365.3C631.282 363.967 631.308 362.747 631.308 361.64C631.308 360.533 631.282 359.32 631.228 358C631.202 356.88 630.982 356.12 630.568 355.72C630.168 355.307 629.448 355.1 628.408 355.1H625.168V367.68ZM625.168 352.78H628.528C629.502 352.78 630.168 352.573 630.528 352.16C630.888 351.733 631.082 350.993 631.108 349.94C631.148 348.62 631.162 347.4 631.148 346.28C631.148 345.16 631.135 343.94 631.108 342.62C631.095 341.713 630.875 341.093 630.448 340.76C630.035 340.427 629.268 340.26 628.148 340.26H625.168V352.78ZM670.498 370V338H675.918C677.824 338 679.191 338.36 680.018 339.08C680.858 339.787 681.291 340.96 681.318 342.6C681.358 345.307 681.384 347.887 681.398 350.34C681.411 352.78 681.411 355.22 681.398 357.66C681.384 360.1 681.358 362.673 681.318 365.38C681.291 367.033 680.878 368.22 680.078 368.94C679.291 369.647 677.998 370 676.198 370H670.498ZM672.958 367.74H676.198C677.198 367.74 677.884 367.58 678.258 367.26C678.644 366.927 678.844 366.347 678.858 365.52C678.911 363.307 678.951 361.273 678.978 359.42C679.004 357.553 679.018 355.747 679.018 354C679.018 352.24 679.004 350.433 678.978 348.58C678.951 346.713 678.911 344.673 678.858 342.46C678.844 341.633 678.624 341.06 678.198 340.74C677.784 340.42 677.024 340.26 675.918 340.26H672.958V367.74ZM698.162 370V338H707.762V340.26H700.622V352.82H707.362V355.08H700.622V367.74H707.762V370H698.162ZM725.521 370L722.241 338H724.801L726.621 356.26L727.501 367.72H729.021L729.901 356.26L731.701 338H734.281L730.981 370H725.521Z" fill="#03DAC6"/>
<g filter="url(#filter2_d_182_4)">
<rect x="47" y="155" width="325" height="399" fill="#282828"/>
</g>
<path d="M147.74 370.24C145.807 370.24 144.42 369.867 143.58 369.12C142.74 368.373 142.307 367.147 142.28 365.44C142.227 360.813 142.2 356.24 142.2 351.72C142.2 347.2 142.227 342.627 142.28 338H144.74C144.713 341.08 144.693 344.147 144.68 347.2C144.68 350.253 144.68 353.307 144.68 356.36C144.693 359.413 144.7 362.487 144.7 365.58C144.7 366.487 144.92 367.113 145.36 367.46C145.8 367.807 146.593 367.98 147.74 367.98C148.887 367.98 149.673 367.807 150.1 367.46C150.527 367.113 150.74 366.487 150.74 365.58C150.74 362.487 150.747 359.413 150.76 356.36C150.773 353.307 150.78 350.253 150.78 347.2C150.78 344.147 150.767 341.08 150.74 338H153.2C153.253 342.627 153.28 347.2 153.28 351.72C153.293 356.24 153.267 360.813 153.2 365.44C153.187 367.147 152.753 368.373 151.9 369.12C151.06 369.867 149.673 370.24 147.74 370.24ZM170.029 370V338H172.489V370H170.029ZM188.286 378L197.066 338H199.546L190.766 378H188.286ZM240.662 370.24C238.729 370.24 237.342 369.867 236.502 369.12C235.662 368.373 235.229 367.147 235.202 365.44C235.149 360.813 235.122 356.24 235.122 351.72C235.122 347.2 235.149 342.627 235.202 338H237.662C237.635 341.08 237.615 344.147 237.602 347.2C237.602 350.253 237.602 353.307 237.602 356.36C237.615 359.413 237.622 362.487 237.622 365.58C237.622 366.487 237.842 367.113 238.282 367.46C238.722 367.807 239.515 367.98 240.662 367.98C241.809 367.98 242.595 367.807 243.022 367.46C243.449 367.113 243.662 366.487 243.662 365.58C243.662 362.487 243.669 359.413 243.682 356.36C243.695 353.307 243.702 350.253 243.702 347.2C243.702 344.147 243.689 341.08 243.662 338H246.122C246.175 342.627 246.202 347.2 246.202 351.72C246.215 356.24 246.189 360.813 246.122 365.44C246.109 367.147 245.675 368.373 244.822 369.12C243.982 369.867 242.595 370.24 240.662 370.24ZM261.351 370L264.811 353.78L261.531 338H263.951L265.451 345.56L266.651 352.72H267.871L269.051 345.56L270.531 338H272.951L269.731 353.82L273.131 370H270.731L269.111 362.08L267.871 354.98H266.651L265.391 362.08L263.771 370H261.351Z" fill="#03DAC6"/>
<defs>
<filter id="filter0_d_182_4" x="903" y="155" width="395" height="484" filterUnits="userSpaceOnUse" color-interpolation-filters="sRGB">
<feFlood flood-opacity="0" result="BackgroundImageFix"/>
<feColorMatrix in="SourceAlpha" type="matrix" values="0 0 0 0 0 0 0 0 0 0 0 0 0 0 0 0 0 0 127 0" result="hardAlpha"/>
<feMorphology radius="5" operator="dilate" in="SourceAlpha" result="effect1_dropShadow_182_4"/>
<feOffset dx="5" dy="50"/>
<feGaussianBlur stdDeviation="15"/>
<feComposite in2="hardAlpha" operator="out"/>
<feColorMatrix type="matrix" values="0 0 0 0 0 0 0 0 0 0 0 0 0 0 0 0 0 0 0.25 0"/>
<feBlend mode="normal" in2="BackgroundImageFix" result="effect1_dropShadow_182_4"/>
<feBlend mode="normal" in="SourceGraphic" in2="effect1_dropShadow_182_4" result="shape"/>
</filter>
<filter id="filter1_d_182_4" x="459" y="155" width="395" height="484" filterUnits="userSpaceOnUse" color-interpolation-filters="sRGB">
<feFlood flood-opacity="0" result="BackgroundImageFix"/>
<feColorMatrix in="SourceAlpha" type="matrix" values="0 0 0 0 0 0 0 0 0 0 0 0 0 0 0 0 0 0 127 0" result="hardAlpha"/>
<feMorphology radius="5" operator="dilate" in="SourceAlpha" result="effect1_dropShadow_182_4"/>
<feOffset dx="5" dy="50"/>
<feGaussianBlur stdDeviation="15"/>
<feComposite in2="hardAlpha" operator="out"/>
<feColorMatrix type="matrix" values="0 0 0 0 0 0 0 0 0 0 0 0 0 0 0 0 0 0 0.25 0"/>
<feBlend mode="normal" in2="BackgroundImageFix" result="effect1_dropShadow_182_4"/>
<feBlend mode="normal" in="SourceGraphic" in2="effect1_dropShadow_182_4" result="shape"/>
</filter>
<filter id="filter2_d_182_4" x="17" y="155" width="395" height="484" filterUnits="userSpaceOnUse" color-interpolation-filters="sRGB">
<feFlood flood-opacity="0" result="BackgroundImageFix"/>
<feColorMatrix in="SourceAlpha" type="matrix" values="0 0 0 0 0 0 0 0 0 0 0 0 0 0 0 0 0 0 127 0" result="hardAlpha"/>
<feMorphology radius="5" operator="dilate" in="SourceAlpha" result="effect1_dropShadow_182_4"/>
<feOffset dx="5" dy="50"/>
<feGaussianBlur stdDeviation="15"/>
<feComposite in2="hardAlpha" operator="out"/>
<feColorMatrix type="matrix" values="0 0 0 0 0 0 0 0 0 0 0 0 0 0 0 0 0 0 0.25 0"/>
<feBlend mode="normal" in2="BackgroundImageFix" result="effect1_dropShadow_182_4"/>
<feBlend mode="normal" in="SourceGraphic" in2="effect1_dropShadow_182_4" result="shape"/>
</filter>
</defs>
</svg>
