<svg width="1363" height="277" viewBox="0 0 1363 277" fill="none" xmlns="http://www.w3.org/2000/svg">
<path d="M1268.39 181.637L1154.06 247.051L1154.57 115.336L1268.39 181.637Z" fill="#6200EE"/>
<path d="M1362.32 185.582L1254.05 247.535L1254.53 122.789L1362.32 185.582Z" fill="#6200EE"/>
<path d="M97.96 246.25H35.46L25.96 275H-25.54L38.71 98.75H95.21L159.21 275H107.46L97.96 246.25ZM85.71 208.75L66.71 151.75L47.96 208.75H85.71ZM312.681 184.5C323.014 186.833 331.181 192 337.181 200C343.347 207.833 346.431 216.833 346.431 227C346.431 242 341.264 253.75 330.931 262.25C320.597 270.75 306.097 275 287.431 275H200.181V98.75H284.681C302.681 98.75 316.764 102.75 326.931 110.75C337.264 118.75 342.431 130 342.431 144.5C342.431 154.833 339.681 163.5 334.181 170.5C328.847 177.333 321.681 182 312.681 184.5ZM249.181 168.75H273.931C286.264 168.75 292.431 163.667 292.431 153.5C292.431 143 286.264 137.75 273.931 137.75H249.181V168.75ZM277.681 235.5C290.014 235.5 296.181 230.333 296.181 220C296.181 214.667 294.514 210.583 291.181 207.75C288.014 204.917 283.431 203.5 277.431 203.5H249.181V235.5H277.681ZM477.405 276.75C460.905 276.75 445.739 272.917 431.905 265.25C418.072 257.417 407.072 246.667 398.905 233C390.905 219.167 386.905 203.583 386.905 186.25C386.905 168.917 390.905 153.417 398.905 139.75C407.072 125.917 418.072 115.167 431.905 107.5C445.739 99.8333 460.905 96 477.405 96C494.072 96 509.239 99.8333 522.905 107.5C536.739 115.167 547.655 125.917 555.655 139.75C563.655 153.417 567.655 168.917 567.655 186.25C567.655 203.583 563.655 219.167 555.655 233C547.655 246.667 536.739 257.417 522.905 265.25C509.072 272.917 493.905 276.75 477.405 276.75ZM477.405 231.25C489.905 231.25 499.739 227.167 506.905 219C514.239 210.833 517.905 199.917 517.905 186.25C517.905 172.25 514.239 161.25 506.905 153.25C499.739 145.083 489.905 141 477.405 141C464.739 141 454.822 145.083 447.655 153.25C440.489 161.25 436.905 172.25 436.905 186.25C436.905 200.083 440.489 211.083 447.655 219.25C454.822 227.25 464.739 231.25 477.405 231.25ZM662.683 98.75V201C662.683 210.5 664.849 217.833 669.183 223C673.683 228.167 680.433 230.75 689.433 230.75C698.433 230.75 705.183 228.167 709.683 223C714.349 217.667 716.683 210.333 716.683 201V98.75H765.683V201C765.683 217.167 762.266 231 755.433 242.5C748.599 253.833 739.266 262.417 727.433 268.25C715.766 273.917 702.766 276.75 688.433 276.75C674.099 276.75 661.266 273.917 649.933 268.25C638.766 262.417 629.933 253.833 623.433 242.5C617.099 231.167 613.933 217.333 613.933 201V98.75H662.683ZM950.411 98.75V137.75H903.411V275H854.411V137.75H807.911V98.75H950.411Z" fill="#6200EE" fill-opacity="0.4"/>
<path d="M86.8 200L91 168H100.3L104.5 200H99.06L98.36 192.72H92.94L92.24 200H86.8ZM93.44 188.06H97.86L97.16 181.06L96.58 172.68H94.72L94.14 181.06L93.44 188.06ZM119.397 200V168H127.057C129.83 168 131.85 168.553 133.117 169.66C134.384 170.767 135.017 172.607 135.017 175.18C135.017 175.793 135.017 176.353 135.017 176.86C135.017 177.353 135.004 177.847 134.977 178.34C134.897 179.713 134.59 180.807 134.057 181.62C133.537 182.42 132.71 183 131.577 183.36V184.24C132.75 184.6 133.604 185.193 134.137 186.02C134.684 186.833 134.984 187.947 135.037 189.36C135.077 189.987 135.09 190.56 135.077 191.08C135.077 191.6 135.064 192.18 135.037 192.82C134.93 195.38 134.264 197.22 133.037 198.34C131.824 199.447 129.837 200 127.077 200H119.397ZM124.697 195.32H127.077C127.97 195.32 128.637 195.107 129.077 194.68C129.517 194.253 129.744 193.613 129.757 192.76C129.757 192.2 129.757 191.673 129.757 191.18C129.757 190.673 129.757 190.147 129.757 189.6C129.744 188.32 129.53 187.42 129.117 186.9C128.717 186.367 128.044 186.1 127.097 186.1H124.697V195.32ZM124.697 181.42H127.137C127.99 181.42 128.63 181.147 129.057 180.6C129.497 180.053 129.717 179.253 129.717 178.2C129.73 177.627 129.737 177.08 129.737 176.56C129.737 176.027 129.73 175.473 129.717 174.9C129.717 174.153 129.497 173.6 129.057 173.24C128.617 172.867 127.95 172.68 127.057 172.68H124.697V181.42ZM158.496 200.36C155.642 200.36 153.582 199.787 152.316 198.64C151.049 197.493 150.382 195.587 150.316 192.92C150.289 191.28 150.269 189.733 150.256 188.28C150.242 186.813 150.236 185.38 150.236 183.98C150.236 182.567 150.242 181.133 150.256 179.68C150.269 178.213 150.289 176.673 150.316 175.06C150.382 172.393 151.049 170.493 152.316 169.36C153.582 168.213 155.642 167.64 158.496 167.64C161.322 167.64 163.362 168.213 164.616 169.36C165.882 170.493 166.556 172.393 166.636 175.06C166.702 176.673 166.749 178.213 166.776 179.68C166.802 181.133 166.816 182.567 166.816 183.98C166.816 185.393 166.802 186.833 166.776 188.3C166.749 189.753 166.702 191.293 166.636 192.92C166.556 195.587 165.882 197.493 164.616 198.64C163.362 199.787 161.322 200.36 158.496 200.36ZM158.496 196.02C159.522 196.02 160.249 195.807 160.676 195.38C161.116 194.953 161.342 194.22 161.356 193.18C161.409 191.567 161.456 190.007 161.496 188.5C161.536 186.98 161.556 185.48 161.556 184C161.556 182.507 161.536 181 161.496 179.48C161.456 177.96 161.409 176.393 161.356 174.78C161.342 173.767 161.116 173.047 160.676 172.62C160.249 172.18 159.522 171.96 158.496 171.96C157.496 171.96 156.769 172.18 156.316 172.62C155.876 173.047 155.642 173.767 155.616 174.78C155.549 176.38 155.502 177.94 155.476 179.46C155.449 180.967 155.436 182.467 155.436 183.96C155.436 185.44 155.449 186.94 155.476 188.46C155.502 189.98 155.549 191.553 155.616 193.18C155.642 194.22 155.876 194.953 156.316 195.38C156.769 195.807 157.496 196.02 158.496 196.02ZM190.535 200.36C187.655 200.36 185.581 199.793 184.315 198.66C183.061 197.513 182.415 195.62 182.375 192.98C182.321 188.833 182.295 184.667 182.295 180.48C182.295 176.293 182.321 172.133 182.375 168H187.675C187.621 170.76 187.588 173.58 187.575 176.46C187.575 179.34 187.581 182.227 187.595 185.12C187.621 188 187.641 190.82 187.655 193.58C187.655 194.38 187.895 194.987 188.375 195.4C188.855 195.813 189.575 196.02 190.535 196.02C191.495 196.02 192.208 195.813 192.675 195.4C193.141 194.987 193.375 194.38 193.375 193.58C193.401 190.82 193.421 188 193.435 185.12C193.461 182.227 193.468 179.34 193.455 176.46C193.455 173.58 193.428 170.76 193.375 168H198.675C198.741 172.133 198.775 176.293 198.775 180.48C198.775 184.667 198.741 188.833 198.675 192.98C198.635 195.62 197.988 197.513 196.735 198.66C195.481 199.793 193.415 200.36 190.535 200.36ZM218.077 200V172.68H212.697V168H228.737V172.68H223.357V200H218.077ZM263.498 200V168H273.338L275.798 180.36L276.498 195.3H278.158L278.838 180.36L281.318 168H291.118V200H285.678V190.12L286.638 172.68H284.798L283.038 190.62L280.638 199.96H273.838L271.638 190.62L269.818 172.68H268.018L268.958 190.12V200H263.498ZM307.334 200V168H320.974V172.68H312.634V181.42H320.574V186.1H312.634V195.32H320.974V200H307.334Z" fill="white"/>
</svg>
