<svg width="320" height="98" viewBox="0 0 320 98" fill="none" xmlns="http://www.w3.org/2000/svg">
<path d="M43.0272 78.8H23.0272L19.9872 88H3.50719L24.0672 31.6H42.1472L62.6272 88H46.0672L43.0272 78.8ZM39.1072 66.8L33.0272 48.56L27.0272 66.8H39.1072ZM111.738 59.04C115.044 59.7867 117.658 61.44 119.578 64C121.551 66.5067 122.538 69.3867 122.538 72.64C122.538 77.44 120.884 81.2 117.578 83.92C114.271 86.64 109.631 88 103.658 88H75.7378V31.6H102.778C108.538 31.6 113.044 32.88 116.298 35.44C119.604 38 121.258 41.6 121.258 46.24C121.258 49.5467 120.378 52.32 118.618 54.56C116.911 56.7467 114.618 58.24 111.738 59.04ZM91.4178 54H99.3378C103.284 54 105.258 52.3733 105.258 49.12C105.258 45.76 103.284 44.08 99.3378 44.08H91.4178V54ZM100.538 75.36C104.484 75.36 106.458 73.7067 106.458 70.4C106.458 68.6933 105.924 67.3867 104.858 66.48C103.844 65.5733 102.378 65.12 100.458 65.12H91.4178V75.36H100.538ZM164.45 88.56C159.17 88.56 154.316 87.3333 149.89 84.88C145.463 82.3733 141.943 78.9333 139.33 74.56C136.77 70.1333 135.49 65.1467 135.49 59.6C135.49 54.0533 136.77 49.0933 139.33 44.72C141.943 40.2933 145.463 36.8533 149.89 34.4C154.316 31.9467 159.17 30.72 164.45 30.72C169.783 30.72 174.636 31.9467 179.01 34.4C183.436 36.8533 186.93 40.2933 189.49 44.72C192.05 49.0933 193.33 54.0533 193.33 59.6C193.33 65.1467 192.05 70.1333 189.49 74.56C186.93 78.9333 183.436 82.3733 179.01 84.88C174.583 87.3333 169.73 88.56 164.45 88.56ZM164.45 74C168.45 74 171.596 72.6933 173.89 70.08C176.236 67.4667 177.41 63.9733 177.41 59.6C177.41 55.12 176.236 51.6 173.89 49.04C171.596 46.4267 168.45 45.12 164.45 45.12C160.396 45.12 157.223 46.4267 154.93 49.04C152.636 51.6 151.49 55.12 151.49 59.6C151.49 64.0267 152.636 67.5467 154.93 70.16C157.223 72.72 160.396 74 164.45 74ZM223.738 31.6V64.32C223.738 67.36 224.432 69.7067 225.818 71.36C227.258 73.0133 229.418 73.84 232.298 73.84C235.178 73.84 237.338 73.0133 238.778 71.36C240.272 69.6533 241.018 67.3067 241.018 64.32V31.6H256.698V64.32C256.698 69.4933 255.605 73.92 253.418 77.6C251.232 81.2267 248.245 83.9733 244.458 85.84C240.725 87.6533 236.565 88.56 231.978 88.56C227.392 88.56 223.285 87.6533 219.658 85.84C216.085 83.9733 213.258 81.2267 211.178 77.6C209.152 73.9733 208.138 69.5467 208.138 64.32V31.6H223.738ZM315.812 31.6V44.08H300.772V88H285.092V44.08H270.212V31.6H315.812Z" fill="#6200EE" fill-opacity="0.4"/>
<path d="M69.5231 70L72.6731 46H79.6481L82.7981 70H78.7181L78.1931 64.54H74.1281L73.6031 70H69.5231ZM74.5031 61.045H77.8181L77.2931 55.795L76.8581 49.51H75.4631L75.0281 55.795L74.5031 61.045ZM93.9708 70V46H99.7158C101.796 46 103.311 46.415 104.261 47.245C105.211 48.075 105.686 49.455 105.686 51.385C105.686 51.845 105.686 52.265 105.686 52.645C105.686 53.015 105.676 53.385 105.656 53.755C105.596 54.785 105.366 55.605 104.966 56.215C104.576 56.815 103.956 57.25 103.106 57.52V58.18C103.986 58.45 104.626 58.895 105.026 59.515C105.436 60.125 105.661 60.96 105.701 62.02C105.731 62.49 105.741 62.92 105.731 63.31C105.731 63.7 105.721 64.135 105.701 64.615C105.621 66.535 105.121 67.915 104.201 68.755C103.291 69.585 101.801 70 99.7308 70H93.9708ZM97.9458 66.49H99.7308C100.401 66.49 100.901 66.33 101.231 66.01C101.561 65.69 101.731 65.21 101.741 64.57C101.741 64.15 101.741 63.755 101.741 63.385C101.741 63.005 101.741 62.61 101.741 62.2C101.731 61.24 101.571 60.565 101.261 60.175C100.961 59.775 100.456 59.575 99.7458 59.575H97.9458V66.49ZM97.9458 56.065H99.7758C100.416 56.065 100.896 55.86 101.216 55.45C101.546 55.04 101.711 54.44 101.711 53.65C101.721 53.22 101.726 52.81 101.726 52.42C101.726 52.02 101.721 51.605 101.711 51.175C101.711 50.615 101.546 50.2 101.216 49.93C100.886 49.65 100.386 49.51 99.7158 49.51H97.9458V56.065ZM123.295 70.27C121.155 70.27 119.61 69.84 118.66 68.98C117.71 68.12 117.21 66.69 117.16 64.69C117.14 63.46 117.125 62.3 117.115 61.21C117.105 60.11 117.1 59.035 117.1 57.985C117.1 56.925 117.105 55.85 117.115 54.76C117.125 53.66 117.14 52.505 117.16 51.295C117.21 49.295 117.71 47.87 118.66 47.02C119.61 46.16 121.155 45.73 123.295 45.73C125.415 45.73 126.945 46.16 127.885 47.02C128.835 47.87 129.34 49.295 129.4 51.295C129.45 52.505 129.485 53.66 129.505 54.76C129.525 55.85 129.535 56.925 129.535 57.985C129.535 59.045 129.525 60.125 129.505 61.225C129.485 62.315 129.45 63.47 129.4 64.69C129.34 66.69 128.835 68.12 127.885 68.98C126.945 69.84 125.415 70.27 123.295 70.27ZM123.295 67.015C124.065 67.015 124.61 66.855 124.93 66.535C125.26 66.215 125.43 65.665 125.44 64.885C125.48 63.675 125.515 62.505 125.545 61.375C125.575 60.235 125.59 59.11 125.59 58C125.59 56.88 125.575 55.75 125.545 54.61C125.515 53.47 125.48 52.295 125.44 51.085C125.43 50.325 125.26 49.785 124.93 49.465C124.61 49.135 124.065 48.97 123.295 48.97C122.545 48.97 122 49.135 121.66 49.465C121.33 49.785 121.155 50.325 121.135 51.085C121.085 52.285 121.05 53.455 121.03 54.595C121.01 55.725 121 56.85 121 57.97C121 59.08 121.01 60.205 121.03 61.345C121.05 62.485 121.085 63.665 121.135 64.885C121.155 65.665 121.33 66.215 121.66 66.535C122 66.855 122.545 67.015 123.295 67.015ZM147.324 70.27C145.164 70.27 143.609 69.845 142.659 68.995C141.719 68.135 141.234 66.715 141.204 64.735C141.164 61.625 141.144 58.5 141.144 55.36C141.144 52.22 141.164 49.1 141.204 46H145.179C145.139 48.07 145.114 50.185 145.104 52.345C145.104 54.505 145.109 56.67 145.119 58.84C145.139 61 145.154 63.115 145.164 65.185C145.164 65.785 145.344 66.24 145.704 66.55C146.064 66.86 146.604 67.015 147.324 67.015C148.044 67.015 148.579 66.86 148.929 66.55C149.279 66.24 149.454 65.785 149.454 65.185C149.474 63.115 149.489 61 149.499 58.84C149.519 56.67 149.524 54.505 149.514 52.345C149.514 50.185 149.494 48.07 149.454 46H153.429C153.479 49.1 153.504 52.22 153.504 55.36C153.504 58.5 153.479 61.625 153.429 64.735C153.399 66.715 152.914 68.135 151.974 68.995C151.034 69.845 149.484 70.27 147.324 70.27ZM167.981 70V49.51H163.946V46H175.976V49.51H171.941V70H167.981ZM202.047 70V46H209.427L211.272 55.27L211.797 66.475H213.042L213.552 55.27L215.412 46H222.762V70H218.682V62.59L219.402 49.51H218.022L216.702 62.965L214.902 69.97H209.802L208.152 62.965L206.787 49.51H205.437L206.142 62.59V70H202.047ZM234.924 70V46H245.154V49.51H238.899V56.065H244.854V59.575H238.899V66.49H245.154V70H234.924Z" fill="white"/>
</svg>
