<svg width="125" height="37" viewBox="0 0 125 37" fill="none" xmlns="http://www.w3.org/2000/svg">
<line x1="8.74228e-08" y1="36" x2="125" y2="36" stroke="#6200EE" stroke-width="2"/>
<path d="M1.21 20V4H4.64L5.59 10.55L6.22 18.5H6.77L7.39 10.55L8.35 4H11.76V20H10.15V15L10.35 5.43H9.5L8.47 15.41L7.69 19.93H5.25L4.52 15.41L3.48 5.43H2.64L2.84 15V20H1.21ZM21.8283 20V14.45H21.3183L19.3983 4H21.0083L21.7083 8.52L22.3283 13.09H22.9383L23.5283 8.52L24.2383 4H25.8683L23.9283 14.45H23.4183V20H21.8283ZM43.6241 20V4H46.6341C47.6341 4 48.3607 4.2 48.8141 4.6C49.2674 5 49.5074 5.66333 49.5341 6.59C49.5607 7.21667 49.5774 7.79 49.5841 8.31C49.5907 8.83 49.5907 9.33 49.5841 9.81C49.5774 10.2833 49.5607 10.78 49.5341 11.3C49.5074 11.92 49.3874 12.42 49.1741 12.8C48.9674 13.1733 48.6474 13.4467 48.2141 13.62L49.8441 20H48.1741L46.7041 13.88H45.2141V20H43.6241ZM45.2141 12.45H46.6241C47.1041 12.45 47.4407 12.37 47.6341 12.21C47.8274 12.0433 47.9341 11.76 47.9541 11.36C47.9741 10.7533 47.9874 10.2 47.9941 9.7C48.0007 9.19333 48.0007 8.69 47.9941 8.19C47.9941 7.68333 47.9807 7.13 47.9541 6.53C47.9341 6.12333 47.8274 5.84 47.6341 5.68C47.4407 5.51333 47.1074 5.43 46.6341 5.43H45.2141V12.45ZM57.71 20V4H63.02V5.43H59.3V11.24H62.82V12.67H59.3V18.57H63.02V20H57.71ZM73.6003 20.14C72.527 20.14 71.7503 19.9267 71.2703 19.5C70.797 19.0667 70.5436 18.3567 70.5103 17.37C70.5036 16.99 70.497 16.6367 70.4903 16.31C70.4903 15.9767 70.4936 15.6433 70.5003 15.31C70.507 14.97 70.517 14.6033 70.5303 14.21H72.0603C72.0336 14.8033 72.017 15.3733 72.0103 15.92C72.0103 16.46 72.027 17.01 72.0603 17.57C72.0803 18.0167 72.2036 18.33 72.4303 18.51C72.6636 18.6833 73.0536 18.77 73.6003 18.77C74.1136 18.77 74.4803 18.6833 74.7003 18.51C74.927 18.33 75.0536 18.0167 75.0803 17.57C75.107 17.2833 75.1203 16.9733 75.1203 16.64C75.127 16.3 75.1236 15.9633 75.1103 15.63C75.1036 15.2967 75.0936 14.9833 75.0803 14.69C75.067 14.1567 74.9603 13.7567 74.7603 13.49C74.5603 13.2233 74.2336 13.0333 73.7803 12.92L72.6703 12.65C72.1236 12.5167 71.6936 12.3233 71.3803 12.07C71.067 11.81 70.8436 11.4633 70.7103 11.03C70.577 10.5967 70.5003 10.0467 70.4803 9.38C70.4736 8.94667 70.4703 8.49667 70.4703 8.03C70.477 7.55667 70.4836 7.08 70.4903 6.6C70.5103 5.94 70.627 5.41 70.8403 5.01C71.0536 4.61 71.3836 4.32 71.8303 4.14C72.2836 3.95333 72.8736 3.86 73.6003 3.86C74.6403 3.86 75.3936 4.07333 75.8603 4.5C76.327 4.92667 76.577 5.63333 76.6103 6.62C76.6236 7.03333 76.627 7.49 76.6203 7.99C76.6136 8.48333 76.6036 9.00333 76.5903 9.55H75.0503C75.0703 8.93667 75.0803 8.38 75.0803 7.88C75.087 7.38 75.0803 6.89333 75.0603 6.42C75.0403 5.97333 74.9203 5.66333 74.7003 5.49C74.4803 5.31 74.107 5.22 73.5803 5.22C73.0536 5.22 72.677 5.31 72.4503 5.49C72.2303 5.66333 72.107 5.97333 72.0803 6.42C72.0536 6.92667 72.0403 7.41667 72.0403 7.89C72.0403 8.36333 72.0536 8.86 72.0803 9.38C72.0936 9.95333 72.1736 10.3767 72.3203 10.65C72.467 10.9167 72.7203 11.0933 73.0803 11.18L74.1303 11.42C74.757 11.5667 75.2503 11.77 75.6103 12.03C75.977 12.29 76.2403 12.6367 76.4003 13.07C76.567 13.5033 76.6603 14.0433 76.6803 14.69C76.6936 14.97 76.7003 15.2667 76.7003 15.58C76.7003 15.8867 76.697 16.1933 76.6903 16.5C76.6836 16.8067 76.677 17.0967 76.6703 17.37C76.6303 18.3567 76.3736 19.0667 75.9003 19.5C75.4336 19.9267 74.667 20.14 73.6003 20.14ZM87.7377 20.14C86.651 20.14 85.871 19.9267 85.3977 19.5C84.931 19.0733 84.6877 18.38 84.6677 17.42C84.641 15.1667 84.6277 12.93 84.6277 10.71C84.6277 8.49 84.641 6.25333 84.6677 4H86.2577C86.2443 5.5 86.2343 7.00333 86.2277 8.51C86.221 10.0167 86.221 11.5233 86.2277 13.03C86.2343 14.5367 86.2377 16.04 86.2377 17.54C86.2377 17.98 86.3477 18.2933 86.5677 18.48C86.7943 18.66 87.1843 18.75 87.7377 18.75C88.2843 18.75 88.6677 18.66 88.8877 18.48C89.1077 18.2933 89.2177 17.98 89.2177 17.54C89.2243 16.04 89.231 14.5367 89.2377 13.03C89.2443 11.5233 89.2477 10.0167 89.2477 8.51C89.2477 7.00333 89.2377 5.5 89.2177 4H90.7977C90.8243 6.25333 90.8377 8.49 90.8377 10.71C90.8443 12.93 90.831 15.1667 90.7977 17.42C90.791 18.38 90.5477 19.0733 90.0677 19.5C89.5943 19.9267 88.8177 20.14 87.7377 20.14ZM99.0694 20V4H102.499L103.449 10.55L104.079 18.5H104.629L105.249 10.55L106.209 4H109.619V20H108.009V15L108.209 5.43H107.359L106.329 15.41L105.549 19.93H103.109L102.379 15.41L101.339 5.43H100.499L100.699 15V20H99.0694ZM118.058 20V4H123.368V5.43H119.648V11.24H123.168V12.67H119.648V18.57H123.368V20H118.058Z" fill="white"/>
</svg>
