<svg width="96" height="22" viewBox="0 0 96 22" fill="none" xmlns="http://www.w3.org/2000/svg">
<line y1="19" x2="65" y2="19" stroke="#6200EE" stroke-width="2"/>
<path d="M2.605 10V2H4.32L4.795 5.275L5.11 9.25H5.385L5.695 5.275L6.175 2H7.88V10H7.075V7.5L7.175 2.715H6.75L6.235 7.705L5.845 9.965H4.625L4.26 7.705L3.74 2.715H3.32L3.42 7.5V10H2.605ZM12.9141 10V7.225H12.6591L11.6991 2H12.5041L12.8541 4.26L13.1641 6.545H13.4691L13.7641 4.26L14.1191 2H14.9341L13.9641 7.225H13.7091V10H12.9141ZM23.812 10V2H25.317C25.817 2 26.1804 2.1 26.407 2.3C26.6337 2.5 26.7537 2.83167 26.767 3.295C26.7804 3.60833 26.7887 3.895 26.792 4.155C26.7954 4.415 26.7954 4.665 26.792 4.905C26.7887 5.14167 26.7804 5.39 26.767 5.65C26.7537 5.96 26.6937 6.21 26.587 6.4C26.4837 6.58667 26.3237 6.72333 26.107 6.81L26.922 10H26.087L25.352 6.94H24.607V10H23.812ZM24.607 6.225H25.312C25.552 6.225 25.7204 6.185 25.817 6.105C25.9137 6.02167 25.967 5.88 25.977 5.68C25.987 5.37667 25.9937 5.1 25.997 4.85C26.0004 4.59667 26.0004 4.345 25.997 4.095C25.997 3.84167 25.9904 3.565 25.977 3.265C25.967 3.06167 25.9137 2.92 25.817 2.84C25.7204 2.75667 25.5537 2.715 25.317 2.715H24.607V6.225ZM30.855 10V2H33.51V2.715H31.65V5.62H33.41V6.335H31.65V9.285H33.51V10H30.855ZM38.8002 10.07C38.2635 10.07 37.8752 9.96333 37.6352 9.75C37.3985 9.53333 37.2718 9.17833 37.2552 8.685C37.2518 8.495 37.2485 8.31833 37.2452 8.155C37.2452 7.98833 37.2468 7.82167 37.2502 7.655C37.2535 7.485 37.2585 7.30167 37.2652 7.105H38.0302C38.0168 7.40167 38.0085 7.68667 38.0052 7.96C38.0052 8.23 38.0135 8.505 38.0302 8.785C38.0402 9.00833 38.1018 9.165 38.2152 9.255C38.3318 9.34167 38.5268 9.385 38.8002 9.385C39.0568 9.385 39.2402 9.34167 39.3502 9.255C39.4635 9.165 39.5268 9.00833 39.5402 8.785C39.5535 8.64167 39.5602 8.48667 39.5602 8.32C39.5635 8.15 39.5618 7.98167 39.5552 7.815C39.5518 7.64833 39.5468 7.49167 39.5402 7.345C39.5335 7.07833 39.4802 6.87833 39.3802 6.745C39.2802 6.61167 39.1168 6.51667 38.8902 6.46L38.3352 6.325C38.0618 6.25833 37.8468 6.16167 37.6902 6.035C37.5335 5.905 37.4218 5.73167 37.3552 5.515C37.2885 5.29833 37.2502 5.02333 37.2402 4.69C37.2368 4.47333 37.2352 4.24833 37.2352 4.015C37.2385 3.77833 37.2418 3.54 37.2452 3.3C37.2552 2.97 37.3135 2.705 37.4202 2.505C37.5268 2.305 37.6918 2.16 37.9152 2.07C38.1418 1.97667 38.4368 1.93 38.8002 1.93C39.3202 1.93 39.6968 2.03667 39.9302 2.25C40.1635 2.46333 40.2885 2.81667 40.3052 3.31C40.3118 3.51667 40.3135 3.745 40.3102 3.995C40.3068 4.24167 40.3018 4.50167 40.2952 4.775H39.5252C39.5352 4.46833 39.5402 4.19 39.5402 3.94C39.5435 3.69 39.5402 3.44667 39.5302 3.21C39.5202 2.98667 39.4602 2.83167 39.3502 2.745C39.2402 2.655 39.0535 2.61 38.7902 2.61C38.5268 2.61 38.3385 2.655 38.2252 2.745C38.1152 2.83167 38.0535 2.98667 38.0402 3.21C38.0268 3.46333 38.0202 3.70833 38.0202 3.945C38.0202 4.18167 38.0268 4.43 38.0402 4.69C38.0468 4.97667 38.0868 5.18833 38.1602 5.325C38.2335 5.45833 38.3602 5.54667 38.5402 5.59L39.0652 5.71C39.3785 5.78333 39.6252 5.885 39.8052 6.015C39.9885 6.145 40.1202 6.31833 40.2002 6.535C40.2835 6.75167 40.3302 7.02167 40.3402 7.345C40.3468 7.485 40.3502 7.63333 40.3502 7.79C40.3502 7.94333 40.3485 8.09667 40.3452 8.25C40.3418 8.40333 40.3385 8.54833 40.3352 8.685C40.3152 9.17833 40.1868 9.53333 39.9502 9.75C39.7168 9.96333 39.3335 10.07 38.8002 10.07ZM45.8688 10.07C45.3255 10.07 44.9355 9.96333 44.6988 9.75C44.4655 9.53667 44.3438 9.19 44.3338 8.71C44.3205 7.58333 44.3138 6.465 44.3138 5.355C44.3138 4.245 44.3205 3.12667 44.3338 2H45.1288C45.1222 2.75 45.1172 3.50167 45.1138 4.255C45.1105 5.00833 45.1105 5.76167 45.1138 6.515C45.1172 7.26833 45.1188 8.02 45.1188 8.77C45.1188 8.99 45.1738 9.14667 45.2838 9.24C45.3972 9.33 45.5922 9.375 45.8688 9.375C46.1422 9.375 46.3338 9.33 46.4438 9.24C46.5538 9.14667 46.6088 8.99 46.6088 8.77C46.6122 8.02 46.6155 7.26833 46.6188 6.515C46.6222 5.76167 46.6238 5.00833 46.6238 4.255C46.6238 3.50167 46.6188 2.75 46.6088 2H47.3988C47.4122 3.12667 47.4188 4.245 47.4188 5.355C47.4222 6.465 47.4155 7.58333 47.3988 8.71C47.3955 9.19 47.2738 9.53667 47.0338 9.75C46.7972 9.96333 46.4088 10.07 45.8688 10.07ZM51.5347 10V2H53.2497L53.7247 5.275L54.0397 9.25H54.3147L54.6247 5.275L55.1047 2H56.8097V10H56.0047V7.5L56.1047 2.715H55.6797L55.1647 7.705L54.7747 9.965H53.5547L53.1897 7.705L52.6697 2.715H52.2497L52.3497 7.5V10H51.5347ZM61.0288 10V2H63.6838V2.715H61.8238V5.62H63.5838V6.335H61.8238V9.285H63.6838V10H61.0288Z" fill="white"/>
<path d="M91.2084 20.1667H77.7917V18.3334H91.2084V20.1667ZM84.5 16.5L78.75 11L80.1013 9.70754L83.5417 12.9892V1.83337H85.4584V12.9892L88.8988 9.70754L90.25 11L84.5 16.5Z" fill="white"/>
</svg>
