<svg width="319" height="314" viewBox="0 0 319 314" fill="none" xmlns="http://www.w3.org/2000/svg">
<path d="M0 0H322V156.524L158.764 314L0 156.524V0Z" fill="#6200EE"/>
<path d="M89.365 40L88.4725 28H89.935L90.2275 32.755L90.52 38.695H91.135L91.375 32.755L92.05 28.075H94.48L95.155 32.755L95.395 38.695H96.01L96.31 32.755L96.6175 28H98.0725L97.165 40H94.345L93.9025 36.2125L93.5725 29.335H92.965L92.6275 36.2125L92.185 40H89.365ZM103.902 40V28H105.357V33.295H107.487V28H108.942V40H107.487V34.5925H105.357V40H103.902ZM114.682 40L116.069 28H118.867L120.247 40H118.754L118.462 36.8275H116.467L116.174 40H114.682ZM116.594 35.53H118.334L118.094 32.965L117.794 29.2975H117.134L116.834 32.965L116.594 35.53ZM126.647 40V29.2975H124.757V28H129.984V29.2975H128.102V40H126.647ZM142.996 40V28H144.451V40H142.996ZM150.877 31.39L151.679 29.635H150.494V28H152.804V29.485L151.792 31.39H150.877ZM158.837 40V28H161.784L162.564 32.8225L162.969 38.665H163.449L163.839 32.8225L164.634 28H167.567V40H166.074V36.265L166.299 29.2975H165.647L164.904 36.535L164.222 39.9625H162.152L161.507 36.535L160.764 29.2975H160.112L160.329 36.265V40H158.837ZM181.474 40V28H183.972C184.852 28 185.484 28.1775 185.869 28.5325C186.259 28.8825 186.462 29.46 186.477 30.265C186.492 31.155 186.502 32 186.507 32.8C186.512 33.6 186.512 34.4 186.507 35.2C186.502 35.995 186.492 36.8375 186.477 37.7275C186.462 38.5375 186.264 39.12 185.884 39.475C185.504 39.825 184.887 40 184.032 40H181.474ZM182.929 38.7025H184.032C184.382 38.7025 184.632 38.6375 184.782 38.5075C184.937 38.3725 185.017 38.1575 185.022 37.8625C185.042 37.1525 185.054 36.4825 185.059 35.8525C185.069 35.2175 185.074 34.5975 185.074 33.9925C185.074 33.3875 185.069 32.77 185.059 32.14C185.054 31.505 185.042 30.8325 185.022 30.1225C185.017 29.8325 184.934 29.6225 184.774 29.4925C184.614 29.3625 184.347 29.2975 183.972 29.2975H182.929V38.7025ZM195.1 40.1125C194.2 40.1125 193.55 39.93 193.15 39.565C192.75 39.2 192.542 38.5975 192.527 37.7575C192.517 37.0475 192.51 36.385 192.505 35.77C192.5 35.155 192.497 34.5575 192.497 33.9775C192.497 33.3925 192.5 32.7975 192.505 32.1925C192.51 31.5825 192.517 30.9325 192.527 30.2425C192.542 29.3975 192.75 28.795 193.15 28.435C193.55 28.07 194.2 27.8875 195.1 27.8875C195.99 27.8875 196.632 28.07 197.027 28.435C197.427 28.795 197.637 29.3975 197.657 30.2425C197.677 30.9325 197.69 31.5825 197.695 32.1925C197.705 32.7975 197.71 33.3925 197.71 33.9775C197.71 34.5625 197.705 35.1625 197.695 35.7775C197.69 36.3875 197.677 37.0475 197.657 37.7575C197.637 38.5975 197.427 39.2 197.027 39.565C196.632 39.93 195.99 40.1125 195.1 40.1125ZM195.1 38.89C195.505 38.89 195.787 38.8125 195.947 38.6575C196.112 38.5025 196.197 38.2225 196.202 37.8175C196.227 37.1025 196.245 36.435 196.255 35.815C196.265 35.195 196.27 34.5925 196.27 34.0075C196.27 33.4175 196.265 32.8125 196.255 32.1925C196.245 31.5675 196.227 30.8975 196.202 30.1825C196.197 29.7825 196.112 29.5025 195.947 29.3425C195.787 29.1825 195.505 29.1025 195.1 29.1025C194.695 29.1025 194.41 29.1825 194.245 29.3425C194.08 29.5025 193.992 29.7825 193.982 30.1825C193.962 30.8825 193.947 31.54 193.937 32.155C193.927 32.77 193.922 33.3725 193.922 33.9625C193.922 34.5525 193.927 35.16 193.937 35.785C193.947 36.41 193.962 37.0875 193.982 37.8175C193.992 38.2225 194.08 38.5025 194.245 38.6575C194.41 38.8125 194.695 38.89 195.1 38.89ZM203.834 40V28H205.289V40H203.834ZM211.527 40V28H214.28L215.007 31.8025L215.967 38.695H216.612L216.395 32.47L216.305 28H217.767V40H214.917L214.145 35.7925L213.35 29.29H212.682L212.877 35.485L212.99 40H211.527ZM226.523 40.1125C225.913 40.1125 225.418 40.035 225.038 39.88C224.663 39.725 224.388 39.4775 224.213 39.1375C224.038 38.7975 223.943 38.3525 223.928 37.8025C223.913 37.1925 223.901 36.57 223.891 35.935C223.886 35.3 223.883 34.6625 223.883 34.0225C223.883 33.3775 223.886 32.7375 223.891 32.1025C223.901 31.4675 223.913 30.85 223.928 30.25C223.943 29.685 224.038 29.23 224.213 28.885C224.393 28.535 224.668 28.2825 225.038 28.1275C225.413 27.9675 225.906 27.8875 226.516 27.8875C227.406 27.8875 228.046 28.065 228.436 28.42C228.826 28.77 229.041 29.3575 229.081 30.1825C229.096 30.5275 229.103 30.87 229.103 31.21C229.103 31.55 229.096 31.895 229.081 32.245H227.626C227.641 31.845 227.648 31.4775 227.648 31.1425C227.648 30.8075 227.641 30.4425 227.626 30.0475C227.611 29.6925 227.526 29.4475 227.371 29.3125C227.216 29.1725 226.931 29.1025 226.516 29.1025C226.091 29.1025 225.798 29.1725 225.638 29.3125C225.483 29.4475 225.398 29.6925 225.383 30.0475C225.358 30.7425 225.341 31.415 225.331 32.065C225.321 32.715 225.316 33.3575 225.316 33.9925C225.316 34.6275 225.321 35.27 225.331 35.92C225.341 36.57 225.358 37.245 225.383 37.945C225.398 38.3 225.483 38.5475 225.638 38.6875C225.798 38.8225 226.093 38.89 226.523 38.89C226.968 38.89 227.273 38.8225 227.438 38.6875C227.603 38.5475 227.696 38.3 227.716 37.945C227.721 37.73 227.723 37.5175 227.723 37.3075C227.728 37.0975 227.728 36.8875 227.723 36.6775C227.723 36.4675 227.721 36.255 227.716 36.04H226.613V34.7425H229.141C229.156 35.3225 229.161 35.8625 229.156 36.3625C229.151 36.8625 229.141 37.3425 229.126 37.8025C229.096 38.6325 228.881 39.225 228.481 39.58C228.086 39.935 227.433 40.1125 226.523 40.1125Z" fill="white"/>
</svg>
