<svg width="167" height="67" viewBox="0 0 167 67" fill="none" xmlns="http://www.w3.org/2000/svg">
<path d="M32.9669 10H90.5H167V38.5L149.298 67H14V38.5L32.9669 10Z" fill="#495556"/>
<path d="M19.8347 0H80H160V30.5L141.488 61H0V30.5L19.8347 0Z" fill="#B9FFF8"/>
<path d="M26.58 39.442L17.077 30.228L17.655 30.466L17.706 39H15.7V26.199H15.785L25.152 35.413L24.693 35.277L24.659 26.624H26.631V39.442H26.58ZM30.0438 26.624H38.2548V28.528H32.0328V31.826H37.5748V33.747H32.0328V37.096H38.4928V39H30.0438V26.624ZM40.1622 26.692H42.4742L45.5342 35.464L45.2112 35.328L47.5912 29.225L48.5092 31.911L45.1092 39.578L40.1622 26.692ZM46.2312 26.692H48.1862L51.5862 35.277L51.1952 35.209L54.0172 26.692H56.1422L51.3142 39.544L46.2312 26.692ZM67.4129 26.624C68.3536 26.624 69.1583 26.7827 69.8269 27.1C70.4956 27.4173 71.0056 27.8707 71.3569 28.46C71.7196 29.0493 71.9009 29.7633 71.9009 30.602C71.9009 31.0893 71.8216 31.5767 71.6629 32.064C71.5156 32.5513 71.2776 32.9933 70.9489 33.39C70.6316 33.7867 70.2009 34.1097 69.6569 34.359C69.1243 34.597 68.4669 34.716 67.6849 34.716H65.8999V39H63.9109V26.624H67.4129ZM67.6849 32.795C68.1156 32.795 68.4783 32.7213 68.7729 32.574C69.0676 32.4267 69.2943 32.2397 69.4529 32.013C69.6229 31.7863 69.7419 31.554 69.8099 31.316C69.8893 31.0667 69.9289 30.8457 69.9289 30.653C69.9289 30.449 69.8949 30.228 69.8269 29.99C69.7589 29.7407 69.6456 29.5083 69.4869 29.293C69.3283 29.0663 69.1073 28.885 68.8239 28.749C68.5406 28.6017 68.1779 28.528 67.7359 28.528H65.8999V32.795H67.6849ZM77.7885 26.624C78.4685 26.624 79.0918 26.7147 79.6585 26.896C80.2252 27.066 80.7068 27.321 81.1035 27.661C81.5002 28.001 81.8062 28.4203 82.0215 28.919C82.2482 29.4063 82.3615 29.9673 82.3615 30.602C82.3615 31.0893 82.2878 31.5767 82.1405 32.064C81.9932 32.5513 81.7495 32.9933 81.4095 33.39C81.0808 33.7867 80.6445 34.104 80.1005 34.342C79.5565 34.58 78.8822 34.699 78.0775 34.699H76.2925V39H74.3035V26.624H77.7885ZM78.0605 32.795C78.5025 32.795 78.8708 32.727 79.1655 32.591C79.4602 32.4437 79.6868 32.2623 79.8455 32.047C80.0155 31.8317 80.1345 31.605 80.2025 31.367C80.2818 31.1177 80.3215 30.8853 80.3215 30.67C80.3215 30.466 80.2875 30.245 80.2195 30.007C80.1515 29.7577 80.0382 29.5253 79.8795 29.31C79.7208 29.0833 79.4942 28.8963 79.1995 28.749C78.9162 28.6017 78.5592 28.528 78.1285 28.528H76.2925V32.795H78.0605ZM80.2025 33.968L83.3645 39H81.0695L77.8395 34.019L80.2025 33.968ZM84.5952 32.829C84.5952 31.9677 84.7595 31.1573 85.0882 30.398C85.4168 29.6387 85.8702 28.9643 86.4482 28.375C87.0262 27.7857 87.6948 27.3267 88.4542 26.998C89.2248 26.658 90.0465 26.488 90.9192 26.488C91.7805 26.488 92.5908 26.658 93.3502 26.998C94.1208 27.3267 94.7952 27.7857 95.3732 28.375C95.9625 28.9643 96.4215 29.6387 96.7502 30.398C97.0902 31.1573 97.2602 31.9677 97.2602 32.829C97.2602 33.7017 97.0902 34.5177 96.7502 35.277C96.4215 36.0363 95.9625 36.7107 95.3732 37.3C94.7952 37.878 94.1208 38.3313 93.3502 38.66C92.5908 38.9773 91.7805 39.136 90.9192 39.136C90.0352 39.136 89.2135 38.9773 88.4542 38.66C87.6948 38.3313 87.0262 37.8837 86.4482 37.317C85.8702 36.739 85.4168 36.0703 85.0882 35.311C84.7595 34.5403 84.5952 33.713 84.5952 32.829ZM86.6352 32.829C86.6352 33.441 86.7428 34.0133 86.9582 34.546C87.1848 35.0787 87.4965 35.549 87.8932 35.957C88.2898 36.3537 88.7488 36.6653 89.2702 36.892C89.7915 37.1187 90.3582 37.232 90.9702 37.232C91.5595 37.232 92.1092 37.1187 92.6192 36.892C93.1405 36.6653 93.5938 36.3537 93.9792 35.957C94.3645 35.549 94.6648 35.0787 94.8802 34.546C95.1068 34.0133 95.2202 33.441 95.2202 32.829C95.2202 32.2057 95.1068 31.6277 94.8802 31.095C94.6535 30.5623 94.3475 30.092 93.9622 29.684C93.5768 29.276 93.1235 28.9587 92.6022 28.732C92.0808 28.5053 91.5198 28.392 90.9192 28.392C90.3185 28.392 89.7575 28.5053 89.2362 28.732C88.7148 28.9587 88.2558 29.276 87.8592 29.684C87.4738 30.092 87.1735 30.568 86.9582 31.112C86.7428 31.6447 86.6352 32.217 86.6352 32.829ZM102.946 36.603C102.946 37.6343 102.742 38.5127 102.334 39.238C101.937 39.9747 101.388 40.5357 100.685 40.921C99.9825 41.3177 99.1778 41.533 98.2711 41.567V39.646C99.0531 39.6007 99.6935 39.34 100.192 38.864C100.702 38.3767 100.957 37.606 100.957 36.552V26.624H102.946V36.603ZM106.345 26.624H114.556V28.528H108.334V31.826H113.876V33.747H108.334V37.096H114.794V39H106.345V26.624ZM126.714 38.031C126.544 38.1557 126.278 38.3087 125.915 38.49C125.552 38.6713 125.122 38.83 124.623 38.966C124.136 39.0907 123.592 39.1473 122.991 39.136C122.028 39.1247 121.161 38.9547 120.39 38.626C119.619 38.286 118.968 37.8327 118.435 37.266C117.902 36.688 117.489 36.0307 117.194 35.294C116.911 34.546 116.769 33.7527 116.769 32.914C116.769 31.9733 116.916 31.112 117.211 30.33C117.506 29.548 117.925 28.8737 118.469 28.307C119.013 27.729 119.659 27.2813 120.407 26.964C121.155 26.6467 121.971 26.488 122.855 26.488C123.637 26.488 124.334 26.5957 124.946 26.811C125.569 27.015 126.091 27.2473 126.51 27.508L125.728 29.378C125.411 29.1513 125.014 28.9303 124.538 28.715C124.062 28.4997 123.524 28.392 122.923 28.392C122.379 28.392 121.858 28.5053 121.359 28.732C120.86 28.9473 120.424 29.259 120.05 29.667C119.676 30.0637 119.376 30.5283 119.149 31.061C118.934 31.5937 118.826 32.1717 118.826 32.795C118.826 33.441 118.922 34.036 119.115 34.58C119.319 35.1127 119.602 35.5773 119.965 35.974C120.339 36.3707 120.781 36.6823 121.291 36.909C121.812 37.1243 122.39 37.232 123.025 37.232C123.671 37.232 124.232 37.1357 124.708 36.943C125.195 36.739 125.586 36.5123 125.881 36.263L126.714 38.031ZM128.47 26.624H136.749V28.528H133.553V39H131.581V28.528H128.47V26.624ZM140.234 35.77V34.767C140.234 34.2117 140.308 33.7583 140.455 33.407C140.603 33.0557 140.79 32.7553 141.016 32.506C141.243 32.2567 141.475 32.0243 141.713 31.809C142.053 31.5257 142.348 31.231 142.597 30.925C142.847 30.619 142.971 30.2167 142.971 29.718C142.971 29.4007 142.892 29.123 142.733 28.885C142.575 28.647 142.376 28.4657 142.138 28.341C141.9 28.205 141.651 28.137 141.39 28.137C141.028 28.137 140.716 28.2163 140.455 28.375C140.195 28.5223 139.979 28.7263 139.809 28.987C139.639 29.2363 139.498 29.5083 139.384 29.803L137.803 29.089C137.883 28.851 138.013 28.579 138.194 28.273C138.376 27.967 138.614 27.6667 138.908 27.372C139.214 27.0773 139.588 26.8337 140.03 26.641C140.472 26.4483 140.988 26.352 141.577 26.352C142.223 26.352 142.801 26.471 143.311 26.709C143.821 26.947 144.229 27.304 144.535 27.78C144.841 28.2447 144.994 28.834 144.994 29.548C144.994 30.126 144.909 30.602 144.739 30.976C144.581 31.35 144.377 31.673 144.127 31.945C143.889 32.217 143.634 32.4777 143.362 32.727C143.147 32.931 142.943 33.1407 142.75 33.356C142.558 33.56 142.405 33.8093 142.291 34.104C142.189 34.3873 142.138 34.7557 142.138 35.209V35.77H140.234ZM141.186 39.051C140.846 39.051 140.569 38.9603 140.353 38.779C140.138 38.5863 140.03 38.337 140.03 38.031C140.03 37.7363 140.138 37.487 140.353 37.283C140.58 37.079 140.858 36.977 141.186 36.977C141.526 36.977 141.804 37.079 142.019 37.283C142.235 37.487 142.342 37.7363 142.342 38.031C142.342 38.337 142.235 38.5863 142.019 38.779C141.815 38.9603 141.538 39.051 141.186 39.051Z" fill="#495556"/>
</svg>
