<svg xmlns="http://www.w3.org/2000/svg" xmlns:xlink="http://www.w3.org/1999/xlink" viewBox="0 0 355 308.53"><defs><style>.cls-1{fill:#dab6e4;}.cls-1,.cls-11,.cls-14,.cls-15,.cls-2,.cls-3,.cls-5,.cls-6{fill-rule:evenodd;}.cls-2{fill:#29d0e2;}.cls-3{fill:#fff;}.cls-4{fill:#0071bc;}.cls-5{fill:#2d2280;}.cls-6{fill:url(#Degradado_sin_nombre_19);}.cls-15,.cls-7{fill:#2c217d;}.cls-8{fill:url(#Degradado_sin_nombre_19-2);}.cls-9{fill:url(#Degradado_sin_nombre_19-3);}.cls-10{fill:url(#Degradado_sin_nombre_19-4);}.cls-11{fill:#4133b3;}.cls-12{fill:url(#Degradado_sin_nombre_19-5);}.cls-13,.cls-14{fill:#00303c;}</style><linearGradient id="Degradado_sin_nombre_19" x1="150.24" y1="290.31" x2="192.28" y2="290.31" gradientUnits="userSpaceOnUse"><stop offset="0" stop-color="#f7818c"/><stop offset="0.02" stop-color="#f7888d"/><stop offset="0.09" stop-color="#f69b90"/><stop offset="0.17" stop-color="#f6a791"/><stop offset="0.24" stop-color="#f6ab92"/><stop offset="1" stop-color="#f9c6b9"/></linearGradient><linearGradient id="Degradado_sin_nombre_19-2" x1="155.02" y1="160.9" x2="201.42" y2="160.9" xlink:href="#Degradado_sin_nombre_19"/><linearGradient id="Degradado_sin_nombre_19-3" x1="132.12" y1="140.29" x2="144.86" y2="140.29" xlink:href="#Degradado_sin_nombre_19"/><linearGradient id="Degradado_sin_nombre_19-4" x1="136.67" y1="128.71" x2="213.23" y2="128.71" xlink:href="#Degradado_sin_nombre_19"/><linearGradient id="Degradado_sin_nombre_19-5" x1="193.93" y1="142.25" x2="210.92" y2="142.25" xlink:href="#Degradado_sin_nombre_19"/></defs><g id="OBJECTS"><path class="cls-1" d="M111.69,279.21a81.26,81.26,0,0,1-20.62-.34c-3-.52-1.4,2.2-1,2.44,1.9,1.23,8.73,2.9,8.34,3.31-.82.86-13.75,2.11-18.3,2-.46,0-5.4-.29-5.39.4,0,1.61,2.63,2,3.85,2.17,4.11.56,16.73.38,16.11.47-1.13.16-10.72,2-14.42,2.5-.24,0-5.47.78-5.36,1.45.21,1.36,4.3,1.26,5.24,1.18,3.7-.32,13.79-1.06,15.07-1.14a44.49,44.49,0,0,1-4.63,1.55c-3.5,1-7.21,1.5-10.66,2.64-.68.23-3.06.79-2.75,1.95.19.75,2.15.79,2.68.79,3.32,0,25.09-4.61,30.59-7.81,2.12-1.23,6.36-1.38,6.36-1.38s.66-10.13-5.08-12.2"/><path class="cls-2" d="M102,126.41a18.21,18.21,0,0,0-18.2-18.2H38.13a18.2,18.2,0,0,0-18.19,18.2v19.2a18.2,18.2,0,0,0,18.19,18.2H53.46l10.84,16s2.76,4.11,5.51,3.69c3.19-.5,2.69-5.89,2.69-5.89l.69-13.83H83.82a18.21,18.21,0,0,0,18.2-18.2Z"/><path class="cls-3" d="M34.58,126.87l.11,0,.1,0,.1,0,.1,0,.1,0,.1,0,.09.06.09.06.08.06.08.07.07.08.07.08.06.08.06.09.05.1,0,.09,0,.1,0,.1,0,.11,0,.1v.11l.11,2.28.12,2.28.06,1.15.05,1.14.06,1.15.05,1.14,0,1.15,0,1.14.05,1.15,0,1.15,0,1.14,0,1.15,0,.57v.58l0,.57v.78l0,.11,0,.1,0,.1,0,.1,0,.1,0,.09-.05.09-.07.09-.06.08-.08.07-.07.08-.09.06-.08.06-.09.06-.1,0-.09,0-.1,0-.11,0-.1,0H35l-.1,0-.1,0-.1,0-.1,0-.09-.05-.09-.06-.08-.06-.09-.07-.07-.07-.07-.08-.07-.08-.06-.09-.06-.09,0-.09,0-.1,0-.1,0-.1,0-.1v-.78l0-.57,0-.57,0-.57,0-1.14-.05-1.14,0-1.13,0-1.14-.05-1.15,0-1.14,0-1.14-.06-1.14,0-1.14-.06-1.14L33,130.77l-.11-2.28v-.31l0-.11,0-.1,0-.1,0-.1.05-.09,0-.09.06-.09.07-.08.07-.08.08-.07.08-.07.08-.06.09-.06.09,0,.1,0,.1,0,.1,0,.1,0h.42Z"/><path class="cls-3" d="M46.09,125.94h.11l.1,0,.11,0,.1,0,.1,0,.1.05.09.06.09.06.08.07.08.07.07.08.07.08.06.09.06.09,0,.1,0,.1,0,.1,0,.1,0,.11v.32l0,.3v4.94l0,.6,0,.59,0,.59,0,.59,0,.59,0,1.2.06,1.19,0,.6,0,.6,0,.61,0,.6,0,.6v5.59l0,.1,0,.11,0,.1,0,.1,0,.1,0,.1-.06.09-.07.09-.07.08-.07.07-.08.08-.09.06-.09.06-.09.06-.1,0-.1,0-.1,0-.11,0-.11,0H46l-.1,0-.11,0-.1,0-.1,0-.1-.05-.09,0-.09-.06-.08-.07-.08-.07-.08-.08L45,147.5l-.06-.08-.05-.1,0-.09,0-.1,0-.1,0-.11,0-.1,0-.11v-5.46l0-.59,0-.59,0-.6,0-.59,0-.59-.06-1.2-.06-1.19,0-.61,0-.6,0-.6,0-.6,0-.61V127.3l0-.11,0-.11,0-.1,0-.1,0-.1.05-.09.06-.09.06-.09.07-.08.08-.08.08-.07.09-.06.09-.06.09-.06.1,0,.1,0,.1,0,.11,0,.11,0h.32Z"/><path class="cls-3" d="M45.83,135.72h.24l.08,0,.08,0,.08,0,.07,0,.08,0,.07,0,.07,0,.07,0,.06.05.07.06.06.06,0,.06.06.06.05.06,0,.07,0,.07,0,.08,0,.07,0,.08,0,.08,0,.07V137l0,.08v.49l0,.08,0,.08,0,.08,0,.07,0,.08,0,.07,0,.07,0,.07-.05.07,0,.06-.06.06,0,.06-.06.06-.07.05-.07.05-.07,0-.07,0-.07,0-.08,0-.07,0-.08,0-.08,0-.08,0h-.17l-.34,0-.36,0-.35,0-.35,0-.7,0L43,139l-.7,0-.7,0h-.35l-.35,0-.34,0-.35,0-.34,0-.35,0-.34,0-.34,0-.34,0-.33,0-.17,0-.17,0-.16,0-.17,0-.16,0-.17,0-.16,0-.16,0-.17,0-.16,0-.16,0-.16,0-.16,0-.16,0-.16,0-.15,0-.16,0-.16,0-.15,0-.16,0-.08,0h-.49l-.09,0-.07,0-.08,0-.08,0-.08,0-.07,0-.08,0-.07,0-.07-.05-.06-.05-.06,0-.07-.05-.05-.06-.06-.07-.05-.06,0-.07,0-.07,0-.07,0-.08,0-.07,0-.08,0-.08,0-.08,0-.08v-.41l0-.08V138l0-.08,0-.08,0-.08,0-.07,0-.08,0-.07.05-.07,0-.07.06-.06.05-.06.06-.06.06-.06.06,0,.07-.05.07,0,.07,0,.07,0,.08,0,.08,0,.07,0,.08,0,.18,0,.18,0,.18,0,.17,0,.19,0,.18,0,.18,0,.18,0,.18,0,.18,0,.18,0,.18,0,.18,0,.18,0,.19,0,.18,0,.18,0,.18,0,.18,0,.19,0,.36,0,.36,0,.36,0,.37,0,.36,0,.36,0,.36,0,.36,0,.36,0h.36l.71,0,.71,0,.7,0,.69,0,.34,0,.34,0,.34,0,.34,0h.17Z"/><path class="cls-3" d="M61.27,125.23h.17l.09,0,.08,0,.08,0,.08,0,.08,0,.07,0,.07,0,.07,0,.07,0,.07.06.06.06.06.06,0,.06.05.07,0,.07,0,.08,0,.07,0,.08,0,.08,0,.08,0,.08,0,.09v.42l0,.09v.08l0,.08,0,.09,0,.07,0,.08,0,.08,0,.07,0,.08,0,.06-.05.07-.06.06-.06.06-.06.06-.07,0-.07.05-.07.05-.08,0-.07,0-.08,0-.08,0-.08,0-.09,0h-.08l-.2,0-.2,0-.2,0-.2,0-.2,0-.19,0-.2,0h-.2l-.2,0H59l-.2,0H52.64l-.18,0h-.17l-.18,0-.17,0-.17,0-.17,0-.18,0-.17,0-.16,0-.17,0-.17,0-.17,0-.17,0-.16,0-.17,0-.16,0-.16,0-.18,0-.08,0-.08,0h-.51l-.09,0-.08,0-.08,0-.08,0-.08,0-.07,0-.07,0-.08-.05-.06-.05-.07-.06-.06-.06-.06-.06-.05-.06,0-.07,0-.07,0-.08,0-.07,0-.08,0-.08,0-.08,0-.08V128l0-.08v-.43l0-.08,0-.08,0-.08,0-.09,0-.07,0-.08,0-.07,0-.08.05-.06.06-.07,0-.06.07-.06.06-.06.07,0,.07,0,.07-.05.07,0,.08,0,.08,0,.08,0,.08,0,.19,0,.21,0,.2-.05.2,0,.2,0,.2,0,.21,0,.2,0,.2,0,.2,0,.2,0,.2,0,.2,0,.2,0,.2,0,.2,0,.19,0h.2l.2,0H59l.18,0h.35l.18,0h.17l.18,0,.17,0,.17,0,.17,0,.18,0,.17,0h.34Z"/><path class="cls-3" d="M55.22,126.32h.1l.11,0,.1,0,.1,0,.1,0,.09,0,.09.06.09.06.08.06.08.07.08.08.07.08.06.08.06.09,0,.09,0,.1,0,.1,0,.1,0,.1,0,.11v.1l0,.58,0,.58,0,.58,0,.58,0,.58,0,.58,0,.58,0,.58,0,.58,0,.58,0,.58v.58l0,1.15L57,137l0,1.15,0,1.15,0,1.15,0,1.15,0,1.15,0,.57,0,.57v.57l0,.58,0,.57,0,.57v.21l0,.11,0,.1,0,.1,0,.1,0,.1,0,.09-.06.09-.06.09-.06.08-.08.08-.07.07-.08.07-.09.06-.09.05-.09,0-.1.05-.1,0-.1,0-.11,0-.1,0h-.32l-.1,0-.1,0-.11,0-.1,0-.09,0-.1-.05-.09,0-.08-.07-.09-.06-.07-.07-.08-.08-.06-.08-.06-.09-.06-.09,0-.09,0-.1,0-.1,0-.1,0-.1v-.21l0-.58,0-.58,0-.58,0-.58v-.58l0-.57,0-1.16,0-1.15,0-1.16,0-1.15,0-1.15,0-1.15,0-1.14,0-.58v-.57l0-.57,0-.57,0-.58,0-.57,0-.57,0-.57,0-.57,0-.57,0-.57,0-.57v-.32l0-.1,0-.1,0-.1,0-.1,0-.09.05-.1.06-.08.07-.09.07-.08.07-.07.08-.07.09-.06.09-.06.09,0,.09,0,.1,0,.1,0,.11,0h.42Z"/><path class="cls-3" d="M76.54,123.71h.23l.11,0,.11,0h0l.08,0,.08,0,.08,0h0l.08,0,.08.06h0l.06,0,.06.05h0l.06.06.06.06v0l0,0,0,.06,0,.06.06.09,0,.09,0,.07,0,.07,0,.07.06.12,0,.13,0,.12,0,.12,0,.12.07.2.06.15,0,.09,0,.16,0,.15,0,.15,0,.15,0,.15,0,.15,0,.14,0,.15,0,.15,0,.15,0,.15,0,.15,0,.14,0,.15,0,.15v.14l0,.15v.29l0,.15v12.4l0,.53v.53l0,.53,0,.53,0,.53,0,.53,0,.26V145l0,.26,0,.26,0,.27V146l0,.26,0,.26,0,.27,0,.26,0,.26,0,.26v.35l0,.11,0,.12,0,.11,0,.1,0,.11-.06.1-.06.09-.08.09-.08.08-.08.08-.1.07-.09.06-.1.06-.11.05-.11,0-.11,0-.11,0-.12,0h-.34l-.12,0-.11,0-.11,0-.11,0-.1-.06L77,149l-.09-.06-.09-.08-.09-.08-.07-.08-.07-.09-.07-.1-.05-.1,0-.11,0-.11,0-.11,0-.11v-.11l0-.28,0-.27,0-.27,0-.28,0-.27,0-.27,0-.28,0-.27,0-.27,0-.28v-.27l0-.27,0-.55,0-.55,0-.54,0-.55,0-.54V130.24l-.05.1-.14.4-.3.8-.16.41-.15.4-.16.41-.08.2-.08.21-.08.2-.08.21-.09.2-.08.2-.09.21-.09.2-.09.21-.09.2-.11.25-.07.15-.08.17-.09.17,0,.1,0,.09-.06.1-.05.1,0,.1-.06.1-.07.1-.06.1-.07.1-.07.11-.07.1-.08.1-.09.11-.09.1-.09.1,0,0-.06.06,0,.05-.06,0-.06.05-.06.05-.07,0-.07.05-.07,0-.08.05-.08,0-.08,0-.09,0-.06,0-.11,0-.11,0-.11,0-.11,0h-.34l-.11,0-.11,0-.11,0-.11,0-.1-.05-.1-.06h0l-.09-.06-.09-.07-.08-.08-.08-.08,0-.05-.08-.11-.07-.11-.08-.13-.1-.15-.23-.38-.27-.44-.5-.83-.18-.29,0-.08,0,0-.1-.16-.12-.17-.1-.18L68,134l-.1-.17-.1-.18-.09-.17-.1-.17-.18-.33-.18-.32-.18-.32-.09-.16-.09-.15-.09-.15-.09-.15-.08-.14-.09-.14-.09-.14-.09-.14,0-.06,0-.06-.05-.07,0-.06,0-.06-.05-.06,0-.06,0-.06-.05-.06,0-.06,0-.06,0-.05,0,0v.19l0,.22,0,.45v.43l0,.39,0,.4,0,.39v3.81l0,.57,0,.57,0,.57,0,.56v5l0,.9v2l0,.11,0,.12,0,.11,0,.1-.06.11-.06.09-.07.1-.07.09-.08.08-.09.07-.09.07-.1.07-.1.05-.11.05-.11,0-.11,0-.11,0-.11,0h-.35l-.11,0-.12,0-.11,0-.1-.05-.11,0-.09-.06-.1-.07-.09-.07-.08-.08-.08-.09-.07-.09-.06-.1-.05-.1,0-.11,0-.1,0-.12,0-.11,0-.11v-1l0-.9v-6l0-.58,0-.57,0-.57,0-.56v-3.17l0-.38v-.39l0-.4,0-.4v-.36l0-.44v-.25l0-.26v-1.44l0-.15,0-.15v-.24l0-.08,0-.08v-.08l0-.08,0-.08,0-.08,0-.09,0-.08,0-.08,0-.08,0-.09,0-.08.06-.11,0-.07.05-.08,0-.07,0,0,0-.08.06-.07h0l.06-.07.07-.06h0l.07-.06.07,0h0l.07,0,.08,0h0l.07,0,.07,0h0l.07,0,.07,0,.08,0,.14,0,.14,0h.61l.08,0,.08,0,.07,0,.07,0,.07,0,.08,0,.12,0,.12.05.11,0,.12,0,.1,0,.11.06.1,0,.1.06.1,0,.09.06.09,0,.08.05.08.06.15.09.13.09.11.08.07.06.06,0,.1.09.09.08.08.08.09.08.08.09.08.08.07.08.08.09.07.08.08.09.07.08.07.09.07.09.07.08.06.09.07.09.06.08.07.09.06.09.06.09.12.17.11.18.11.17.11.17.1.18.1.17.1.17.1.18.19.33.18.33.18.32.09.16.09.16.08.15.09.15.09.14.09.15.09.14.1.15,0,.07.07.11.17.28,0-.12.09-.19.08-.18.08-.19.08-.19.07-.19.08-.19.08-.19.07-.19.08-.19.15-.4.15-.39.15-.39.3-.8.15-.41.15-.4.16-.41.16-.4.08-.21.08-.21.09-.2.08-.19v0l0-.11.12-.32.07-.2.09-.22.08-.23,0-.12,0-.12,0-.12.05-.12.06-.12.05-.13.06-.12.06-.12.07-.12.06-.12.07-.12,0-.07,0-.06,0-.06.05-.07,0-.06.06-.07.06-.07.07-.07.08-.08.09-.08.11-.08.13-.08.08,0,.07,0,.07,0h0l.1,0,.1,0,.11,0h0l.11,0h.22Z"/><path class="cls-3" d="M83.35,123.93l.11,0,.12,0,.11,0,.11,0,.11,0,.1.06.1.06.1.07.08.08.09.09.07.09.07.1.06.1,0,.11,0,.11,0,.11,0,.12,0,.12v.23l0,.54,0,.53,0,.53,0,.53,0,.54,0,.54v.53l0,.54v.55l0,.54v6.76l0,.27v.54l0,.26V139l0,.27,0,.26,0,.27,0,.26,0,.27,0,.26,0,.26,0,.26,0,.27,0,.26,0,.26,0,.26,0,.26,0,.27v4h0l0,0h1.35l.15,0,.38,0,.38,0,.38,0,.39,0,.38,0,.39,0,.19,0,.19,0,.19,0,.19,0,.19,0,.18,0,.19,0,.18,0,.19,0,.18,0,.18,0,.18,0,.17,0,.18,0,.17,0,.17,0,.17,0,.16,0,.16,0,.18-.05.11,0,.12,0h.35l.12,0,.12,0,.11,0,.11,0,.11,0,.1.06.1.07.09.07.09.08.08.09.07.09.07.1,0,.1.06.11,0,.11,0,.12,0,.11v.47l0,.12,0,.12,0,.11,0,.11-.06.1-.06.1-.07.1-.08.09-.08.08-.09.08-.1.07-.1.06-.1.05-.11.05-.12,0-.19.06-.2,0-.2.06-.21.05-.2,0-.21.05-.21,0-.2,0-.21,0-.21,0-.2,0-.21,0-.21,0-.2,0-.21,0-.2,0-.21,0-.2,0-.21,0-.2,0-.4,0-.4,0-.39,0-.39,0-.38,0-.38,0-.19,0-.19,0H85.09l-.13,0-.14,0-.13,0-.13,0-.14,0-.14,0-.13,0-.08,0-.07,0-.06,0-.07,0-.07,0-.07,0-.07,0-.07,0-.07,0-.07,0-.07,0-.07-.05-.07,0-.06-.05-.07,0L83,149l-.06-.05-.07-.06,0-.06-.06,0,0-.06,0-.06,0-.06-.05-.07-.07-.11-.07-.12-.06-.12-.06-.11,0-.12,0-.11,0-.11,0-.11,0-.11,0-.11,0-.11,0-.11,0-.11,0-.1,0-.11V143l0-.26,0-.27,0-.27,0-.28,0-.27,0-.27,0-.28,0-.27,0-.28,0-.27,0-.28,0-.28,0-.27v-.28l0-.28,0-.27v-.56l0-.28v-1.95l0-.56v-5l0-.55v-.55l0-.55,0-.55,0-.54,0-.55,0-.54,0-.54,0-.53v-.12l0-.12,0-.11,0-.12,0-.1.06-.11.06-.1.07-.1.08-.09.08-.08.09-.08.09-.07.1-.06.11-.06.11,0,.11,0,.11,0,.12,0h.36Z"/><path class="cls-2" d="M126.75,18.2c0-10-4.36-18.2-14.4-18.2H66.66c-10,0-14.28,8.15-14.28,18.2V37.4c0,10.05,4.24,18.2,14.28,18.2H82l10.84,16s2.76,4.11,5.52,3.69c3.18-.5,2.68-5.89,2.68-5.89l.69-13.83h10.63c10,0,14.4-8.15,14.4-18.2Z"/><path class="cls-3" d="M80,18.48h.08l.09,0h.08l.08,0,.08,0,.08,0,.08,0,.07,0,.07,0,.07,0,.07.05.07.06.06,0,.06.06,0,.06.06.07,0,.07,0,.07,0,.07,0,.08,0,.07,0,.08,0,.08,0,.08,0,.09v.5l0,.08,0,.08,0,.08,0,.08,0,.08,0,.07,0,.07,0,.07,0,.07L81.1,21l-.06.06-.06.06-.06.05-.06.06-.21.15-.21.16-.21.15-.21.16L79.8,22l-.21.15-.21.14-.22.15-.21.15-.21.14-.22.14-.21.14-.43.28-.43.28-.43.27-.42.27-.42.27-.43.27-.41.27-.42.27-.2.13-.21.14-.2.13-.21.14-.08.06-.09.05-.09.05-.09.06-.09.05-.09,0-.18.09-.17.1-.18.09-.35.17-.17.09-.17.09-.16.08-.07,0-.07,0h0l0,0,.05,0,0,0,.11,0,.11.05.12.05.1,0,.1,0,.11,0,.11,0,.11,0,.11,0,.23.08.23.08.24.09.49.16.18.07.19.06.18.06.19.06.18.05.19.06.19.05.19.06.19.05.19.06.39.1.8.21.16.05.15,0,.31.09.31.09.3.09.3.09.29.09.59.18.28.09.29.08.28.09.14,0,.14,0,.14,0,.13,0,.14,0,.14,0,.14,0,.13,0,.14,0L82,30l.08,0,.08,0,.08,0,.08,0,.08,0,.07,0,.07,0,.07.05.06.05.07.06.06.06,0,.06.06.06,0,.07,0,.07,0,.07,0,.08,0,.07,0,.08,0,.08,0,.08,0,.08v.51l0,.08,0,.08,0,.08,0,.08,0,.08,0,.07,0,.08,0,.07,0,.07,0,.06-.06.06-.06.06-.06.06-.06,0-.07.05-.07,0-.07,0-.08,0-.08,0-.07,0-.08,0-.08,0L82,33h-.58l-.16,0-.16,0-.16,0-.17,0-.16,0-.16,0-.16,0-.15,0-.16,0-.16,0-.3-.09-.31-.09-.3-.09-.59-.18L78,32.05,77.73,32l-.29-.09-.28-.08-.28-.08-.14,0-.14,0-.8-.21-.4-.11-.21-.06L75,31.2l-.21-.06-.2-.06L74.37,31,74.16,31,74,30.89l-.2-.07-.21-.07-.21-.07-.49-.17-.24-.08-.26-.09-.25-.09L72,30.2l-.13-.05-.13,0-.14-.05L71.43,30l-.14,0-.15-.07L71,29.8l-.16-.08-.09,0-.08,0-.08-.05-.08,0-.08-.05-.09,0-.08-.05-.08-.05-.09-.06L70,29.25l-.08-.05-.07-.05-.07-.06L69.7,29,69.63,29l-.07-.06-.07-.06-.06-.05-.07-.06-.06-.06-.06-.07-.06-.06-.06-.07-.06-.07L69,28.36l0-.07,0-.08-.06-.07,0-.08,0-.09,0-.08,0-.09,0-.09,0-.1,0-.09,0-.1,0-.1,0-.1,0-.1v-.61l0-.1,0-.09,0-.09,0-.09,0-.09,0-.08,0-.08,0-.08,0-.07,0-.08,0-.06,0-.07,0-.06,0-.06,0-.06,0-.06,0-.06.09-.1.1-.09.09-.09.1-.09.1-.08.1-.08.1-.07.1-.07.1-.07.1-.06.1-.07.1-.06.09-.06.1,0,.1-.06.1-.05L70.9,24l.2-.1.18-.09.35-.18.17-.08.15-.08.14-.08.06,0,0,0,0,0,0,0,0,0,0,0,.2-.13.21-.15.22-.14.21-.14.43-.27.43-.28.43-.27.42-.27.42-.27.42-.27.42-.26.41-.27.2-.14.21-.13.2-.14.2-.14.2-.13.2-.14.2-.14.19-.14.2-.14.19-.14.19-.14.2-.15.07-.05.07,0,.07-.05.08,0,.07,0,.08,0,.08,0,.08,0h.09l.08,0H80Z"/><path class="cls-3" d="M97.93,14.71l.12,0,.12,0,.12,0,.11.05.11.05.1.06.1.07.1.08.08.09.08.09.08.1.06.1.06.11,0,.11,0,.11,0,.12,0,.12v.36l0,.13,0,.11,0,.12,0,.11-.21.47-.22.48-.22.47-.22.48-.22.47-.23.46-.22.47-.23.47-.23.46-.23.46-.23.47-.24.46-.23.46-.23.46-.47.91-.48.91-.47.91-.47.91-.46.91-.23.45-.23.46-.23.45-.23.46-.23.45-.23.46-.22.45-.22.46-.15.3-.14.31-.14.31-.14.31-.14.31-.13.31-.14.31-.13.32-.13.32-.14.32-.26.64-.27.64-.27.65-.14.33-.13.32-.14.33-.15.33-.14.32-.15.33-.15.33-.15.33-.16.32-.08.17-.08.16-.08.16-.08.17-.08.16-.09.16-.08.16-.09.17-.09.16-.09.16-.09.16-.09.16-.09.17-.09.15-.07.1-.07.1-.08.09-.09.09-.09.07-.1.07-.11.06-.11.06-.11,0-.12,0-.11,0-.12,0h-.37l-.12,0-.12,0-.11,0-.11-.05-.11,0-.1-.07-.1-.07-.09-.08-.08-.09L84.59,42l-.07-.1-.06-.11,0-.11,0-.11,0-.12,0-.12,0-.12v-.36l0-.12,0-.12,0-.11.05-.11.06-.11.08-.15.08-.14.09-.14.08-.15.08-.14.07-.15.08-.14.08-.15.08-.15.07-.15.08-.14.07-.15.07-.15.08-.15.14-.31.14-.3.14-.31.14-.3.14-.32.13-.31.14-.31.13-.32.14-.31.26-.64.27-.65.27-.64.13-.33.14-.32.14-.33.14-.33.14-.33.15-.32.14-.33.15-.33.16-.33.15-.33.23-.46.23-.47.23-.46L90,28.4l.23-.46.24-.46.23-.46.23-.46.47-.91.47-.92.48-.91.46-.91.47-.9.23-.46.23-.45.23-.46.23-.45.23-.45.22-.46.23-.45.22-.46.21-.46.22-.45.22-.46.21-.46.21-.46.21-.46,0-.11.06-.11.07-.1.08-.09.09-.09L96.8,15l.09-.07.11-.06.11-.06.11,0,.11,0,.12,0,.12,0h.36Z"/><path class="cls-3" d="M103.2,19.79h.09l.1,0,.09,0,.09,0,.09,0,.09,0,.09,0,.08.05.08.05.08.05.07.06.07.07.06.07.09.1.09.1.08.09.09.09.09.1.09.09.1.09.09.09.1.09.1.1.1.09.1.09.1.09.11.09.1.09.11.09.11.09L106,22l.11.09.11.09.11.09.12.09.11.09.12.08.24.18.24.17.24.18.25.17.24.17.25.18.51.34.51.35.26.18.26.18.26.18.25.18.26.18.25.18.26.19.12.09.13.1.12.1.13.09.12.1.09.07h0l0,0,0,0,0,0,.13.07.32.18.18.1.19.1.1.06.1.06.1.06.1.06.1.07.1.07.1.07.11.07.1.09.1.08.06.05,0,.06.06.05,0,.06.06.07.06.07.06.08.06.09.06.1,0,.11.06.12,0,.12,0,.1,0,.08v.08l0,.08v.77l0,.08v.08l0,.12,0,.13,0,.13,0,.11,0,.12-.06.11-.06.1-.06.1-.06.1-.07.09-.07.09-.06.08-.07.09-.07.08-.07.08-.07.07-.08.08-.07.07-.07.07-.08.07-.07.06-.08.07-.07.06-.08.07-.07.06-.08.06-.07.06-.08.06-.15.11-.15.1-.15.1-.14.1-.14.09-.14.09-.14.08-.12.08-.13.07-.11.07-.2.11-.17.09-.17.1-.17.09-.16.08-.17.09-.17.09-.17.08-.17.08-.17.09-.17.08-.17.08-.17.07-.17.08-.17.08-.18.07-.17.08-.17.07-.34.14-.34.14-.34.14-.34.14-.34.13-.34.13-.67.26-.67.26-.33.13-.33.13-.33.13-.32.14-.33.13-.32.14-.32.13-.15.07-.16.07-.16.07-.15.07-.16.08-.15.07-.15.07-.16.08-.15.07-.15.08-.15.07-.15.08-.15.08-.15.08-.08.05-.09,0-.09,0-.09,0-.1,0-.09,0h-.47l-.1,0-.09,0-.09,0-.09,0-.08,0-.09-.05-.08,0-.07-.06-.07-.06-.07-.06-.07-.07-.06-.08,0-.08,0-.08,0-.08,0-.09,0-.08,0-.1,0-.09v-.09l0-.1V36l0-.09,0-.09,0-.09,0-.09,0-.09,0-.08,0-.08.05-.08.06-.08.07-.07.07-.06.07-.07.07-.06.08,0,.09-.05.16-.08.17-.1.17-.08.17-.09.17-.09.17-.08.17-.09.17-.08.17-.08.17-.08.17-.08.18-.07.17-.08.17-.07.34-.15.34-.15.35-.14.34-.14.34-.13.34-.14.34-.13.67-.26.67-.26.33-.13.33-.13.33-.13.32-.13.32-.13.32-.14.16-.06.16-.07.15-.07.16-.07.15-.07.16-.07L108,31l.16-.08.15-.07.15-.07.15-.08.15-.07.15-.08.15-.08.14-.08.15-.08.14-.08.18-.1.09-.05.1-.06.1-.06.11-.07.11-.06.11-.08.11-.07.11-.08.11-.07.1-.08,0,0,0,0,0,0,.05,0,0,0,0,0h0l-.16-.09-.33-.17-.15-.09-.08,0-.08-.05-.08,0-.08-.05-.09-.06-.08-.07-.13-.1-.11-.08-.11-.09-.11-.08-.11-.08-.11-.09-.23-.17-.24-.17-.24-.17-.24-.17-.24-.17-.25-.17-.25-.17-.51-.35-.52-.36-.26-.18-.26-.18-.26-.18-.26-.19-.26-.19-.26-.19-.13-.1-.13-.09-.13-.1-.13-.1-.13-.1-.12-.1-.13-.11-.13-.1-.12-.11-.13-.1-.12-.11-.12-.11-.13-.11-.12-.11-.12-.11-.12-.11-.12-.12-.11-.11-.12-.12-.11-.12-.12-.12-.11-.12-.11-.12-.11-.12-.06-.08,0-.07,0-.08-.05-.09,0-.08,0-.09,0-.09,0-.09,0-.1V21l0-.09,0-.09,0-.09,0-.09,0-.08,0-.08.05-.08.06-.07.07-.08.06-.06.08-.07.07-.05.08-.06.08-.05.09,0,.08,0,.09,0,.1,0,.09,0h.38Z"/><path class="cls-2" d="M213.64,37.54c0-10,4.35-18.2,14.4-18.2h45.69c10,0,14.28,8.15,14.28,18.2v19.2c0,10.05-4.24,18.2-14.28,18.2H258.4L247.56,91s-2.76,4.11-5.52,3.69c-3.18-.5-2.68-5.89-2.68-5.89l-.69-13.83H228c-10,0-14.4-8.15-14.4-18.2Z"/><path class="cls-3" d="M237,34.61h.29l.1,0h.09l.1,0h.1l.1,0,.1,0,.1,0,.09,0,.1,0,.1,0,.09,0,.1.05.09,0,.1,0,.09.05.09.06.09.06.09.06.08.07.09.07.08.07.08.07.08.08.07.08.08.08.07.08.07.09.06.08.07.09.06.09.06.1.07.12.08.12.06.12.07.13.06.12.06.12.05.13,0,.13.05.12.05.13,0,.12,0,.13,0,.13,0,.13,0,.12,0,.13,0,.13,0,.13,0,.12,0,.13,0,.13,0,.12,0,.13v2.32l0,.22,0,.23,0,.23,0,.22,0,.22,0,.22,0,.21,0,.21,0,.21-.07.39,0,.12,0,.11,0,.11-.05.1,0,.1-.07.1-.07.09-.08.08-.08.09-.09.07-.09.06-.1.06-.11.06-.1,0-.11,0-.12,0-.11,0h-.35l-.11,0-.11,0-.12,0-.1,0-.11-.05-.1,0-.1-.07-.09-.07-.08-.07-.08-.09-.08-.09-.06-.09-.06-.1,0-.1-.05-.11,0-.11,0-.11,0-.12v-.34l0-.12.07-.39,0-.19,0-.19,0-.2,0-.19,0-.2,0-.19,0-.19,0-.19,0-.19v-2l0-.08v-.08l0-.07,0-.07,0-.08V38.8l0-.07,0-.07,0-.06,0-.07,0-.06,0-.07,0-.06,0-.06,0-.07,0-.06,0-.06,0-.05,0-.06,0,0v0l0,0,0,0v0l0,0h0v0h-.82l0,0h0l0,0h0l0,0,0,0-.05,0,0,0-.09,0-.09.05-.09,0-.09.05-.1,0-.09.06-.09.06-.1.06-.09.06-.09.07-.1.07-.09.07-.09.07-.09.07-.09.07-.09.08-.08.07-.09.08-.08.07-.08.08-.07.07-.08.07-.07.08-.07.07-.07.07-.06.07-.06.06-.05.07-.06.06,0,.06,0,.05,0,0,0,0,0,.05,0,.08-.06.08-.06.09-.05.08,0,.09-.05.09-.06.09,0,.08-.05.09-.05.09,0,.09,0,.09-.05.09-.05.1,0,.09-.05.09,0,.09,0,.1-.05.09,0,.1,0,.09,0,.1,0,.09,0,.1,0,.1,0,.1,0,.09,0,.1,0,.1,0,.1,0,.1,0,.1,0,.1,0,.11,0,.1,0,.1,0,.1,0,.1,0,.11,0,.1,0,.11,0,.1,0,.1,0,.11,0,.1,0,.11,0,.11,0,.1,0,.11,0,.1,0,.22,0,.22,0,.21,0,.22,0,.22,0,.22,0,.22v.22l0,.22,0,.22v2.45l0,.23,0,.22,0,.22,0,.22,0,.22,0,.22,0,.22,0,.22,0,.21,0,.22,0,.21,0,.22,0,.21.05.21,0,.21.05.21,0,.21.05.21,0,.07,0,.06,0,.07,0,.07,0,.07,0,.06,0,.07,0,.06,0,.07,0,.06,0,.06,0,.06,0,.07,0,0,0,.06,0,.06,0,.06,0,.05,0,.06,0,.05,0,.06,0,.05,0,0,0,0,0,.05,0,0,0,.05,0,0,0,0,0,.05,0,0,0,0,0,0,0,0,0,.05,0,0,0,0,0,0,0,0,0,0,0,0,0,0,0,0,0,0,0,0,0,0,0,0,0,0,0,0,0,0,0,0,0,0,0,0,0,0,0,0,0,0,0,0,0,0,0,0,0,0,0,0,0,0,0,0,0,0h0l0,0,0,0H234l0,0h.07l0,0h1.34l.05,0h.1l0,0,.05,0,.06,0,0,0,.06,0,.05,0,.06,0,.05,0,.06,0,.06,0,.06,0,.05,0,.06,0,.06,0,.06,0,.06,0,.06,0,.07,0,.06,0,.06,0,.07,0,.1-.06.1,0,.11,0,.11,0,.11,0,.12,0h.34l.12,0,.11,0,.11,0,.11,0,.1,0,.11.06.09.06.09.07.09.08.08.08.07.09.07.1.06.1.05.1,0,.11,0,.11,0,.11,0,.11v.47l0,.11,0,.11,0,.11,0,.1-.06.1-.06.1-.07.09-.08.09-.08.08-.09.07-.1.07-.08,0-.1.06-.09.06-.1.06-.09,0-.1.06-.09,0-.1.05-.09,0-.1.05-.1,0-.09,0-.1,0-.1,0-.09,0-.1,0-.1,0-.09,0-.1,0-.1,0-.1,0-.09,0-.1,0-.1,0-.1,0-.09,0-.1,0h-.1l-.1,0-.1,0h-1.55l-.09,0H234l-.1,0h-.09l-.1,0-.09,0-.09,0-.09,0-.09,0-.09,0-.09,0-.09,0-.09,0-.09,0-.08,0-.09,0-.09,0-.08,0-.08,0-.09,0-.08,0-.08,0-.08,0-.08,0-.08-.05-.08,0-.08-.05-.08-.06-.07-.05-.08-.06-.07-.06-.07,0-.08-.06-.07-.06-.07-.07-.07-.06-.07-.06L231,58l-.07-.06-.07-.07-.06-.07-.07-.07-.06-.07-.06-.07-.06-.07-.06-.08-.06-.07-.06-.07-.06-.08-.05-.08L230.2,57l0-.08-.06-.08-.05-.08,0-.08-.05-.09-.05-.08,0-.08-.05-.09,0-.08-.05-.09,0-.09,0-.08,0-.09,0-.09,0-.09,0-.09,0-.09,0-.1,0-.09,0-.09,0-.1,0-.09,0-.1,0-.09,0-.1,0-.1,0-.1,0-.1,0-.1,0-.1,0-.1-.06-.23-.06-.24-.05-.24-.06-.24-.05-.24,0-.25,0-.24,0-.25,0-.24,0-.25,0-.25,0-.25,0-.25,0-.25,0-.26,0-.25,0-.25v-.26l0-.26V47.21l0-.26v-.26l0-.26,0-.26,0-.25,0-.26,0-.26,0-.25,0-.26,0-.26.05-.25,0-.13,0-.13,0-.13,0-.12,0-.13,0-.13,0-.12,0-.13,0-.12,0-.13,0-.13,0-.12,0-.13,0-.12,0-.13,0-.12,0-.12,0-.13,0-.12,0-.12,0-.13,0-.12.05-.12,0-.12,0-.12.05-.12,0-.13.05-.12.05-.12.06-.12.05-.12.05-.11.06-.12,0-.12.06-.12L230,40l.05-.12.06-.12.06-.11.07-.12.06-.11.06-.12.07-.11.06-.11.07-.11.07-.12.07-.11.07-.11.07-.11.08-.11.06-.1.08-.09.07-.1.07-.1.08-.1.09-.1.08-.09.09-.1.09-.1.1-.11.09-.1.1-.1.11-.1.1-.1.11-.1.11-.1.12-.1.11-.1.12-.1.12-.1.13-.1.12-.1.13-.1.13-.09.13-.1.14-.09.13-.09.14-.09.15-.08.14-.09.14-.08.15-.08.15-.08.15-.07.08,0,.08,0,.08,0,.08,0,.08,0,.08,0,.08,0,.08,0,.08,0,.09,0,.08,0,.09,0,.08,0,.09,0,.08,0,.09,0h.09l.09,0h.09l.09,0H237Z"/><path class="cls-3" d="M250.63,36.67h.69l.12,0,.11,0,.12,0,.12,0,.11,0,.12,0,.11,0,.12,0,.09,0,.11,0,.1,0,.1.05.09,0,.09.07.09.07.07.08.08.08.07.09.06.09.05.1.05.1,0,.1,0,.1,0,.11,0,.11v.44l0,.11,0,.11,0,.1,0,.1-.06.1-.05.09-.07.09-.07.09-.08.07-.08.08-.09.07-.09.06-.1,0-.09.05-.11,0-.1,0-.11,0-.11,0h-.44l-.11,0-.1,0-.07,0,0,0h-.06l-.05,0h-1.45l-.06,0h-.07l-.06,0h-.07l-.07,0-.06,0-.07,0-.06,0-.07,0-.07,0-.06,0-.07,0-.07,0-.06,0-.07,0-.06,0-.07,0-.06,0-.07,0-.06,0-.07,0-.06,0-.07,0-.06,0-.06,0-.07,0-.06,0-.06,0-.06,0-.06,0-.06.05-.06,0-.06,0-.06,0-.05,0-.06.05,0,0-.06,0-.05.05-.06,0,0,.05-.05,0,0,0-.05.05-.05,0,0,.06-.05,0,0,.05-.05,0,0,.06-.05,0,0,.05,0,.06,0,.05,0,.06,0,.05,0,.06,0,.06,0,0,0,.06,0,.05,0,.06,0,.06,0,0,0,.06,0,.06,0,0,0,.06,0,.06,0,.05,0,.06v.06l0,.05,0,.06v.06l0,0v1.25l0,.06v0l0,.06,0,.06,0,0,0,.06,0,.06,0,.06,0,.06,0,.06,0,.06,0,.06,0,.06,0,.06,0,.07,0,.06,0,.07.05.06,0,.07.05.06,0,.07.05.07.05.06,0,.07.05.07.06.06.11.14.12.14.11.14.12.13.08.09.09.09.08.09.08.09.09.09.09.09.08.09.09.09.19.18.19.18.19.18.19.19.2.18.22.21.23.22.25.24.13.13.14.13.13.14.14.14.13.14.14.14.14.15.14.15.15.16.14.16.14.16.14.16.14.17.14.16.14.18.13.17.13.18.13.17.07.09.06.09.07.1.06.09.06.09.06.09.06.1.06.09.06.1.06.09.05.1.06.1,0,.09.05.1.05.1,0,.1.05.1,0,.11,0,.1,0,.1,0,.11,0,.1,0,.11,0,.11,0,.1,0,.11,0,.12,0,.11,0,.11,0,.11,0,.12,0,.12v1l0,.12,0,.13,0,.12,0,.13,0,.13,0,.12,0,.12,0,.13-.05.12-.06.12-.06.12-.07.12-.07.11-.08.11-.08.11-.08.11-.09.1-.09.1-.1.1-.1.1-.1.09-.1.09-.11.08-.11.09-.12.08-.12.08-.12.07-.12.07-.13.07-.13.07-.13.07-.13.06-.14.06-.14.06-.15,0-.14.06-.17,0-.16.06-.17,0-.16.05-.17,0-.16,0-.17,0-.16,0-.17,0-.16,0-.17,0-.16,0h-.17l-.16,0h-.54l-.11,0-.11,0-.1,0-.11,0-.1,0-.1-.05-.09,0-.09-.07-.09-.07-.07-.08-.08-.08-.07-.09-.06-.09,0-.09-.05-.1,0-.1,0-.11,0-.11,0-.11v-.33l0-.11,0-.1,0-.11,0-.1.05-.11,0-.09.05-.1.07-.09.07-.08.07-.08.09-.08.08-.07L247,57l.09-.05.1,0,.1,0,.11,0,.11,0,.1,0h.7l.11,0h.11l.12,0,.1,0,.11,0,.11,0,.11,0,.1,0,.11,0,.1,0,.1,0,.09,0,.09,0,.08,0,.07,0,.08,0,.07,0,.06,0,.06,0,.05,0,0,0,.05,0,0,0,0,0,0,0,0,0,0,0,0,0,0,0,0,0v0l0,0v0h0v0h0v0h0v0h0v0h0v-.55l0,0v0l0-.06,0,0,0-.05,0-.06,0-.06,0-.05,0-.06,0-.06,0-.06,0-.07,0-.06,0-.06,0-.07,0-.06,0-.07,0-.07,0-.06,0-.07,0-.07,0-.07-.05-.07,0-.07-.05-.06-.05-.07-.1-.14-.11-.14-.11-.14-.11-.14-.12-.14L249,52.6l-.12-.14-.13-.14-.12-.13-.12-.14-.12-.13-.13-.13-.12-.13-.13-.13-.12-.12-.12-.13-.12-.12-.12-.11-.23-.23-.22-.21-.21-.2-.2-.18-.2-.19-.2-.2-.21-.19-.2-.2-.11-.11-.1-.1-.1-.11-.11-.1-.1-.11-.1-.11-.1-.11-.1-.12-.14-.15-.14-.16-.13-.16-.14-.17-.08-.09-.07-.09-.07-.09-.07-.09-.07-.1-.07-.09-.06-.1-.07-.1-.07-.1-.07-.1-.06-.11-.07-.1-.06-.11-.06-.11-.06-.11-.06-.12-.06-.12-.05-.12-.06-.12,0-.12-.05-.13,0-.13,0-.13,0-.13,0-.12,0-.13,0-.12,0-.13,0-.12,0-.13,0-.13v-.12l0-.12v-1l0-.12V43l0-.12,0-.12,0-.12,0-.11,0-.12,0-.11,0-.12,0-.11,0-.12,0-.11,0-.11,0-.11.05-.11,0-.1.05-.11,0-.11.05-.1.05-.11.06-.1,0-.1.06-.1.06-.1.06-.1.06-.1.07-.09.06-.1.07-.09.07-.09.07-.1.07-.09.07-.09.07-.09.08-.08.07-.09.08-.08.08-.09.08-.08.08-.08L245,39l.08-.08.08-.08.09-.08.08-.07.09-.08.09-.07.09-.07.08-.08.1-.07.09-.06.09-.07.09-.07.1-.06.09-.07.1-.06.09-.06.1-.06.1-.06.1-.06.1,0,.1-.06.1,0,.1,0,.1-.05.1,0,.11-.05.1,0,.11,0,.1,0,.11-.05.1,0,.11,0,.11,0,.11,0,.11,0,.1,0,.11,0,.12,0,.11,0,.11,0,.11,0,.11,0,.11,0,.12,0,.11,0,.11,0h.23l.11,0h.7Z"/><path class="cls-3" d="M262.54,38.08h.76l.11,0,.11,0h.11l.11,0,.11,0,.11,0,.11,0,.11,0,.1,0,.11,0,.11,0,.11,0,.1,0,.11,0,.1,0,.11.05.1,0,.11,0,.1.05.1,0,.1.06.09,0,.09.06.09.06.08.07.08.07.07.09.07.08.06.09.05.09,0,.1,0,.1,0,.1,0,.11,0,.1v.44l0,.1,0,.11,0,.1,0,.1,0,.1-.06.09-.06.09-.06.08-.07.08-.08.08-.09.07-.08.06-.09.06-.1.05-.1,0-.1,0-.1,0-.11,0-.11,0h-.32l-.11,0-.1,0-.11,0-.1,0-.1-.05-.09,0-.06,0,0,0-.05,0-.05,0-.05,0-.05,0,0,0-.05,0-.06,0-.05,0-.05,0-.06,0h-.05l-.06,0h0l-.05,0h-1.61l-.05,0h-.06l-.06,0h-.06l-.06,0h-.06l-.06,0-.06,0-.05,0-.06,0-.05,0-.06,0-.06,0-.05,0-.06,0,0,0-.05,0-.05,0-.06,0-.05,0-.05,0,0,0-.05,0,0,0-.05,0,0,0,0,0-.05,0,0,0,0,0,0,0,0,0,0,0,0,0,0,0,0,0,0,0,0,0,0,0,0,0,0,0,0,0,0,0,0,0,0,0,0,0,0,0,0,0,0,0,0,.05,0,0,0,0,0,0,0,0,0,.05,0,0,0,0v0l0,0v.05l0,0v1.23l0,.07v.19l0,0v.1l0,0v0l0,.08,0,.06,0,.07,0,.07,0,.07.05.07.05.07.05.07.05.07,0,.07.06.07.06.08.06.07.06.07.07.07.06.08.07.07.07.07.08.08.07.07.07.08.08.07.15.15.16.15.06.06.06.05.07.06.06.06.07.06.07,0,.07.06.07.06.15.12.15.11.16.12.16.12.17.13.17.12.35.26.18.13.18.13.18.13.19.14.18.15.19.14.09.08.09.07.1.08.09.08.09.08.09.08.1.08.09.08.09.09.09.09.09.08.08.09.09.1.09.09.09.09.08.1.09.1.08.1.08.1.08.11.08.11.08.11.07.11.07.11.08.12.06.12.07.12.07.12.05.11.05.11,0,.11.05.11,0,.11.05.11,0,.12,0,.11,0,.11,0,.11,0,.12,0,.11,0,.11,0,.11,0,.12,0,.11v.11l0,.12v1.32l0,.11,0,.11,0,.1,0,.11,0,.1,0,.11,0,.1,0,.1,0,.1,0,.1,0,.1,0,.1,0,.1,0,.1-.05.09,0,.1,0,.09,0,.09-.05.1-.05.09-.06.09,0,.09-.06.08-.05.09-.06.09-.06.08-.06.08-.07.09-.06.08-.07.08-.06.07-.07.08-.07.08-.07.07-.07.08-.07.07-.08.07-.07.07-.08.07-.08.07-.07.07-.08.06-.08.07-.09.06-.08.06-.08.06-.09.06-.08.06-.09.06-.08,0-.09.06-.09,0-.09,0-.09.05-.09,0-.1.05-.09,0-.09,0-.1,0-.09,0-.1,0-.1,0-.1,0-.09,0-.1,0-.1,0-.1,0-.11,0-.1,0-.1,0-.1,0-.11,0-.1,0-.11,0-.1,0h-.11l-.1,0h-1.42l-.11,0h-.11l-.11,0h-.11l-.11,0-.11,0-.11,0-.1,0-.11,0-.1,0-.1,0-.09-.05-.09-.06-.09-.06-.09-.07-.07-.07-.08-.08-.07-.09-.06-.08-.05-.1-.05-.09,0-.1,0-.11,0-.1,0-.11,0-.1v-.33l0-.1,0-.11,0-.1,0-.1,0-.1.06-.09.06-.09.06-.09.07-.08.08-.08.08-.07.09-.06.09-.06.09,0,.1,0,.1,0,.11,0,.1,0,.11,0h.32l.11,0,.1,0h.13l.06,0h1.38l.06,0h0l.05,0h.06l.05,0,.05,0,.05,0,.06,0,0,0,.05,0,.05,0,.05,0,.05,0,0,0,.05,0,.05,0,.05,0,.05,0,0,0,.05,0,.05,0,0,0,.05,0,0,0,.05,0,0,0,0,0,0,0,0,0,0,0,0,0,0,0,0,0,0,0,0,0,0,0,0,0,0,0,0,0,0,0,0,0,0,0,0,0,0,0,0,0,0,0,0,0,0,0,0,0,0,0,0-.05,0,0,0,0,0,0,0,0,0,0,0,0,0,0,0-.05v0l0,0V55l0-.05V53.72l0,0v-.05l0-.06,0-.05,0,0,0-.06,0,0,0-.05,0-.06,0-.06,0,0,0-.06,0-.06,0-.06,0-.06,0-.06-.05-.06,0-.06,0-.06-.05-.06,0-.06-.05-.06-.05-.06-.05-.06-.06-.06-.05-.06-.06-.06-.06-.06-.06-.06-.06-.06-.07-.06-.06-.06-.07-.06-.07-.06-.07-.06-.07-.06-.07-.06-.08-.06-.07-.06-.16-.12-.16-.12-.16-.13-.17-.12-.16-.12-.18-.13-.35-.25-.18-.13-.18-.14-.18-.13-.18-.14-.18-.14-.18-.14-.09-.07-.09-.08-.09-.07-.09-.08-.09-.08-.09-.08-.09-.08-.08-.08-.18-.17-.17-.17-.09-.08-.1-.1-.09-.09-.09-.09-.09-.1-.09-.1-.09-.1-.09-.1-.09-.1-.09-.11-.09-.11-.09-.11-.09-.11-.08-.12-.09-.12L257,47l-.08-.13-.08-.13-.08-.13-.07-.14-.08-.13-.06-.14,0-.08,0-.07,0-.07,0-.08,0-.07,0-.08,0-.08,0-.07,0-.08,0-.08,0-.08,0-.09,0-.12,0-.13,0-.12,0-.13,0-.12,0-.13,0-.12V43.19l0-.12,0-.12,0-.11,0-.12,0-.12,0-.11,0-.11,0-.11,0-.12,0-.11,0-.1,0-.11,0-.11.05-.1,0-.1.05-.11.05-.1.06-.1.05-.09.06-.1.06-.09.06-.1.07-.09.06-.09.07-.09.07-.08.07-.09.07-.08.07-.08.08-.08.07-.08.08-.08.08-.08.08-.07.08-.07.08-.08.08-.07.09-.06.08-.07.09-.07.08-.06.09-.06.09-.06.09-.06.09-.06.1-.06.09-.05.09,0,.1-.05.09,0,.1,0,.1-.05.09,0,.1,0,.1,0,.1,0,.1,0,.1,0,.1,0,.1,0,.11,0,.1,0,.1,0,.11,0,.1,0,.1,0,.11,0,.11,0,.1,0,.11,0,.11,0h.1l.11,0h1Z"/><path class="cls-2" d="M177.24,179.43s-12.35,3.8-14,20.09c-4.91,47.42-3.13,70-8.45,79.38-1.12,2-51.85-5.25-52.39-3.84-1.5,3.94-11.34,20.21-9.5,20.74,5.78,1.66,73.43,20.29,87.88,6.62,13.3-12.59,11.46-37.69,8.45-50.88C185.36,234.78,196.45,180.43,177.24,179.43Z"/><path class="cls-4" d="M271.78,305c-12.86-42.74-50.95-135.51-50.95-135.51l-20.78-2.76c-2.62-2-28.77,18.48-28.77,18.48s-2.22,12.44-4.33,24.83C165,221.42,154,233.19,155,239.22c2.42,14,19.63,17.36,19.63,17.36,3,24.62,5.42,39.34,8.74,51.95"/><path class="cls-2" d="M218.44,169.73s-6.41,14.2-3.25,34.86c1.35,8.79,11.69,44.5,14.13,53.1,5.29,18.61-3.45,19-21.94,19.1-2.61,0-21.76-2-22.14-.35-1.08,4.55-5,26.05,2.15,27.62,8.68,1.92,54,7.51,67.1-9.4,12.06-15.56,7.37-43.16,2.82-57.41-5.78-18.11-19.28-68.75-38.87-67.52"/><path class="cls-5" d="M185.59,275.68c2.63,0,5.17,6.28,5.68,14.1S190.05,304,187.42,304s-5.17-6.28-5.67-14.1,1.22-14.19,3.84-14.23"/><path class="cls-6" d="M190.4,287.68s-10.46-2.45-18.79-7.4c-2.55-1.51-2.18,1.57-1.94,1.91,1.24,1.8,6.82,5.7,6.3,5.94-1.1.52-13.49-2.76-17.62-4.41-.42-.16-4.84-2.11-5.11-1.47-.64,1.5,1.59,2.76,2.63,3.33,3.54,1.93,15.21,6.09,14.6,6-1.11-.23-10.65-1.84-14.26-2.62-.24-.05-5.34-1.15-5.52-.5-.36,1.34,3.43,2.65,4.33,2.89,3.53,1,13.1,3.75,14.3,4.12a42.44,42.44,0,0,1-4.88-.16c-3.63-.24-7.24-1.07-10.87-1.2-.71,0-3.13-.32-3.32.86-.13.77,1.65,1.47,2.14,1.65,3.05,1.11,24.91,4.34,31.28,3.26,2.45-.42,6.39.9,6.39.9s4.76-9.16.34-13.06"/><path class="cls-7" d="M161.82,77.22s-15.8-3-23.33,6.85-5.81,23.15-17.39,27.86-15.47,27.19-4.31,33.95-2.36,19.19-2.36,19.19-10.09,9.86,2.36,22.29a93.57,93.57,0,0,0,21.7,9.26s-9.07-8.84-6.37-20c0,0,1,18.53,18.12,20s28.34-10.55,28.34-10.55l50.13-12.2s29.18-7.6,29.22-27.84-19.62-17.81-23.37-32.38-4.66-28.9-20.92-33.52S177.68,58.36,161.82,77.22Z"/><path class="cls-8" d="M199.85,167.7,198.41,129c-3.89-8.26-26.63-8.7-34.23-4.64-7,3.75-10.66,12.67-8.56,21l18.78,48.09c2.74,9.76,14.72,7.08,19.29.89C205.44,178.44,200.48,168.73,199.85,167.7Z"/><path class="cls-9" d="M144.86,148.14l-3.54-15.49s-6.86-3.17-8.88,4.29,5.91,13.4,12.42,11.2"/><path class="cls-10" d="M136.67,128.32c4.21,29.46,7.67,48.93,28.81,48.3s48.05-24.94,47.75-50.57-17.68-45.89-38.82-45.26-38,21.9-37.74,47.53"/><path class="cls-11" d="M184,243.41s15.79,13.07,36.43,6.69C220.47,250.1,199,268.18,184,243.41Z"/><path class="cls-7" d="M142,104s4.94-8.83,13,0,4.33,22.92,23.56,25.3,7.19,20.75,20.58,20l1.46,31.44s35.16-49.19,16.91-77.78S154.76,65.55,142,104Z"/><path class="cls-12" d="M193.93,150.34l6.55-15.84s8.89-3.38,10.31,4.18-9.17,13.77-16.86,11.66"/><rect class="cls-13" x="89.15" y="295.83" width="98.72" height="9.65"/><path class="cls-14" d="M135.48,303.57,124,196.62,6.38,204.82l18.26,98.76Z"/><path class="cls-2" d="M128.05,305.2,117.14,196.72,0,205.12,17.71,305.29Z"/><ellipse class="cls-13" cx="65.52" cy="253.21" rx="11.15" ry="14.09" transform="translate(-49.49 18.31) rotate(-11.58)"/><path class="cls-2" d="M307.12,193.08S283,181.46,298.55,167s-15.64-24.68-6.74-39.44,19.28-8,21-17.71S302,92.73,310.05,78.55,327.42,58.23,339,60s-3.52,30.51,8.38,36.23,10.27,24.06-7.9,40,11,26.12-6.14,37.13S307.12,193.08,307.12,193.08Z"/><path class="cls-2" d="M284.56,223.45s16.9-15.84,3.58-22.36,9.06-23.36.71-32.06-15.42-.52-17.76-7.44.39-16.84-4.89-27c-6.89-13.21-19.33-13-26.78-3.6-6,7.66,12.4,22.37,4.07,30.17s-5.08,21.34,10.38,28.26-5.37,23.11,8.74,26.57S284.56,223.45,284.56,223.45Z"/><path class="cls-15" d="M331.26,80.17l.31.1.27.16.24.22.19.27.12.29.07.32v.32l-.07.31-.19.56-.18.55-.19.56-.18.55-.18.56-.18.56-.18.55-.17.56-.18.56-.17.56-.17.56-.17.56-.17.57-.17.56-.16.56-.17.56-.16.57-.16.56-.16.57-.16.57-.16.56-.16.57-.15.57-.16.57-.15.57-.15.56-.15.57-.15.58-.15.57-.15.57-.14.57-.15.57-.14.58-.15.57-.14.57-.14.58-.14.57-.14.58-.13.57-.14.58-.14.58-.13.57-.14.58-.13.58-.13.58-.13.57-.13.58-.13.58-.13.58-.13.58-.25,1.16-.26,1.16-.24,1.17-.25,1.16-.24,1.17-.25,1.16-.23,1.17-.24,1.17-.24,1.16-.23,1.17L322,123.4l-.23,1.17-.23,1.17-.23,1.17-.23,1.17-.45,2.34-.45,2.34-.45,2.34-.45,2.34-.46,2.34-.22,1.17-.23,1.16-.23,1.17-.23,1.16-.23,1.17-.23,1.16-.23,1.17L317,149.1l-.24,1.16-.24,1.16-.24,1.15-.24,1.16-.25,1.15-.25,1.16-.69,3.18-.7,3.18-.69,3.18-.7,3.18-.71,3.18-.7,3.18-1.41,6.37-1.41,6.36-.7,3.18-.71,3.18-.7,3.19-.7,3.18-.7,3.18-.7,3.19-.69,3.18-.69,3.18-.35,1.6-.34,1.59-.34,1.59-.35,1.59-.34,1.6-.34,1.59-.34,1.59-.33,1.59-.34,1.6-.34,1.59-.33,1.59-.33,1.6-.33,1.59-.34,1.59-.32,1.6-.33,1.59-.33,1.59-.32,1.6-.32,1.59-.32,1.6-.32,1.59-.32,1.59-.32,1.6-.31,1.59-.31,1.6-.31,1.59-.31,1.6-.31,1.59-.09.31-.15.29-.21.24L293,259l-.29.14-.32.07h-.32l-.32-.06-.29-.12-.27-.19-.22-.24-.17-.27-.1-.31,0-.32,0-.32.3-1.59.31-1.6.31-1.6L292,251l.31-1.6.32-1.6.31-1.59.32-1.6.33-1.6.32-1.6.32-1.59.33-1.6.33-1.6.33-1.59.33-1.6.33-1.59.33-1.6.34-1.59.33-1.6.34-1.6.34-1.59.34-1.59.34-1.6.34-1.59.34-1.6.34-1.59.35-1.6.34-1.59.7-3.19.69-3.18.7-3.19.7-3.18.7-3.19.7-3.18.71-3.18.7-3.19,1.41-6.36,1.41-6.36.7-3.18.71-3.18.69-3.18.7-3.18.7-3.18.69-3.18.25-1.14.24-1.15.24-1.15.24-1.15.24-1.15.24-1.16.23-1.16.24-1.15.23-1.16.23-1.16.23-1.17.22-1.16.23-1.16.23-1.17.45-2.33.45-2.34.45-2.34.45-2.34.45-2.35.23-1.17.23-1.17.23-1.18.23-1.17.24-1.17.23-1.17.24-1.18.23-1.17.24-1.17.25-1.17.24-1.17.25-1.17.25-1.17.25-1.17.26-1.17.13-.59.13-.58.13-.58.13-.59.13-.58.14-.58.13-.58.14-.59.13-.58.14-.58.14-.58.14-.58.14-.58.14-.58.14-.58.14-.58L324,100l.14-.58.15-.58.14-.58.15-.58.15-.57.16-.58L325,96l.15-.57.15-.58.16-.57.16-.58.16-.57.16-.58.16-.57.16-.57.17-.57.16-.58.17-.57.17-.57.17-.57.17-.57.17-.57.17-.57.18-.56.18-.57.18-.57.18-.56.18-.57.18-.56.19-.57.18-.56.19-.57.19-.55.14-.3.19-.26.24-.21.28-.16.31-.09.32,0Z"/><path class="cls-15" d="M254.05,139l.26.05.25.09.23.14.21.18.17.2.13.24.17.37.16.38.34.76.33.76.33.76.33.76.32.76.33.77.32.77.32.77.32.78.31.77.31.78.32.78.31.78.3.78.31.78.3.79.31.79.3.78.3.79.3.79.29.8.3.79.29.79.3.8.29.79.29.8.29.8.29.79.28.8.29.8.29.8.28.8.29.8.56,1.6.57,1.61.56,1.6L268,173l.56,1.6,1.12,3.2.55,1.6.56,1.59.56,1.59.56,1.59.28.79.28.79.28.78.29.79.28.79.28.78.29.78.28.79.8,2.16.79,2.17.79,2.16.8,2.17,1.59,4.33,1.6,4.33,1.6,4.34,1.59,4.33,1.6,4.34.8,2.17.79,2.17.8,2.17.79,2.17.8,2.17.79,2.17.79,2.18.78,2.17.79,2.18.79,2.18.78,2.17.78,2.18.77,2.18.78,2.18.77,2.18.39,1.1.38,1.09.38,1.09.39,1.09.38,1.1.38,1.09.07.26,0,.27,0,.26-.07.26-.12.25-.16.21-.19.19-.22.15-.25.11-.26.07-.27,0-.26,0-.26-.07-.24-.12-.22-.16-.19-.19-.15-.22-.11-.25-.38-1.09-.38-1.09-.38-1.09-.39-1.09-.38-1.09-.39-1.09-.77-2.18-.77-2.17-.78-2.18-.77-2.18-.79-2.17-.78-2.17-.78-2.18L288,237l-.79-2.17-.79-2.17-.79-2.17-.8-2.17-.79-2.17-.8-2.17-.79-2.17-1.6-4.33-1.6-4.34-1.59-4.33-1.6-4.33-1.59-4.34-.8-2.16-.8-2.17-.79-2.17-.79-2.17-.29-.78-.29-.79-.28-.79-.28-.79-.29-.79-.28-.79-.28-.79-.29-.8-.56-1.58-.56-1.6-.56-1.59-.56-1.6-1.11-3.2-.56-1.6-.56-1.6-.56-1.6-.56-1.6-.57-1.6-.28-.8-.29-.79-.28-.8-.29-.79-.28-.8-.29-.79-.29-.8-.29-.79-.29-.79-.29-.79-.29-.79-.3-.78-.29-.79-.3-.79-.29-.78-.3-.78-.3-.78-.3-.78-.31-.77-.3-.78-.31-.77-.31-.77-.31-.77-.31-.77-.31-.76-.32-.77-.32-.76-.31-.75-.33-.76-.32-.75-.32-.75-.33-.75-.33-.75-.17-.37-.17-.37-.08-.25-.05-.27v-.27l0-.26.09-.25.14-.23.18-.21.21-.17.23-.13.25-.08.27-.05Z"/><path class="cls-14" d="M315.81,245.59H254.87V279.3c0,10.7,13.9,25.56,13.9,25.56l32.06.68s15-15.08,15-26.24Z"/></g></svg>