<svg width="1370" height="323" viewBox="0 0 1370 323" fill="none" xmlns="http://www.w3.org/2000/svg">
<path d="M88.638 189.637L196.192 255.051L195.71 123.336L88.638 189.637Z" fill="#6200EE"/>
<path d="M0.263295 193.582L102.127 255.535L101.671 130.789L0.263295 193.582Z" fill="#6200EE"/>
<path d="M574.485 98.75L531.235 275H470.985L446.735 167L421.985 275H361.735L318.985 98.75H371.985L392.485 219.25L420.235 98.75H473.985L500.985 218.25L521.485 98.75H574.485ZM704.778 276.75C688.278 276.75 673.112 272.917 659.278 265.25C645.445 257.417 634.445 246.667 626.278 233C618.278 219.167 614.278 203.583 614.278 186.25C614.278 168.917 618.278 153.417 626.278 139.75C634.445 125.917 645.445 115.167 659.278 107.5C673.112 99.8333 688.278 96 704.778 96C721.445 96 736.612 99.8333 750.278 107.5C764.112 115.167 775.028 125.917 783.028 139.75C791.028 153.417 795.028 168.917 795.028 186.25C795.028 203.583 791.028 219.167 783.028 233C775.028 246.667 764.112 257.417 750.278 265.25C736.445 272.917 721.278 276.75 704.778 276.75ZM704.778 231.25C717.278 231.25 727.112 227.167 734.278 219C741.612 210.833 745.278 199.917 745.278 186.25C745.278 172.25 741.612 161.25 734.278 153.25C727.112 145.083 717.278 141 704.778 141C692.112 141 682.195 145.083 675.028 153.25C667.862 161.25 664.278 172.25 664.278 186.25C664.278 200.083 667.862 211.083 675.028 219.25C682.195 227.25 692.112 231.25 704.778 231.25ZM931.306 275L896.306 210H891.056V275H842.056V98.75H919.306C933.472 98.75 945.472 101.25 955.306 106.25C965.139 111.083 972.556 117.833 977.556 126.5C982.556 135 985.056 144.583 985.056 155.25C985.056 167.25 981.722 177.833 975.056 187C968.556 196 958.972 202.417 946.306 206.25L986.056 275H931.306ZM891.056 176.5H915.306C921.972 176.5 926.972 174.917 930.306 171.75C933.639 168.583 935.306 164 935.306 158C935.306 152.333 933.556 147.917 930.056 144.75C926.722 141.417 921.806 139.75 915.306 139.75H891.056V176.5ZM1136.59 275L1081.34 197.75V275H1032.34V98.75H1081.34V174.75L1136.09 98.75H1192.59L1127.84 184.25L1195.84 275H1136.59ZM1305.24 276.75C1284.74 276.75 1267.9 271.917 1254.74 262.25C1241.57 252.417 1234.49 238.417 1233.49 220.25H1285.74C1286.24 226.417 1288.07 230.917 1291.24 233.75C1294.4 236.583 1298.49 238 1303.49 238C1307.99 238 1311.65 236.917 1314.49 234.75C1317.49 232.417 1318.99 229.25 1318.99 225.25C1318.99 220.083 1316.57 216.083 1311.74 213.25C1306.9 210.417 1299.07 207.25 1288.24 203.75C1276.74 199.917 1267.4 196.25 1260.24 192.75C1253.24 189.083 1247.07 183.833 1241.74 177C1236.57 170 1233.99 160.917 1233.99 149.75C1233.99 138.417 1236.82 128.75 1242.49 120.75C1248.15 112.583 1255.99 106.417 1265.99 102.25C1275.99 98.0833 1287.32 96 1299.99 96C1320.49 96 1336.82 100.833 1348.99 110.5C1361.32 120 1367.9 133.417 1368.74 150.75H1315.49C1315.32 145.417 1313.65 141.417 1310.49 138.75C1307.49 136.083 1303.57 134.75 1298.74 134.75C1295.07 134.75 1292.07 135.833 1289.74 138C1287.4 140.167 1286.24 143.25 1286.24 147.25C1286.24 150.583 1287.49 153.5 1289.99 156C1292.65 158.333 1295.9 160.417 1299.74 162.25C1303.57 163.917 1309.24 166.083 1316.74 168.75C1327.9 172.583 1337.07 176.417 1344.24 180.25C1351.57 183.917 1357.82 189.167 1362.99 196C1368.32 202.667 1370.99 211.167 1370.99 221.5C1370.99 232 1368.32 241.417 1362.99 249.75C1357.82 258.083 1350.24 264.667 1340.24 269.5C1330.4 274.333 1318.74 276.75 1305.24 276.75Z" fill="#6200EE" fill-opacity="0.4"/>
</svg>
