<svg width="48" height="48" viewBox="0 0 48 48" fill="none" xmlns="http://www.w3.org/2000/svg">
<path d="M44 24C44.0034 26.6343 43.4847 29.2432 42.4739 31.6759C41.4631 34.1085 39.9803 36.3168 38.111 38.173C36.2571 40.0237 34.0566 41.4909 31.6354 42.4907C29.2141 43.4905 26.6196 44.0034 24 44C12.954 44 4.00002 35.046 4.00002 24C3.99303 18.8718 5.96289 13.9382 9.50002 10.225C11.3664 8.25562 13.6149 6.68776 16.1081 5.6174C18.6014 4.54704 21.2868 3.99668 24 4.00002C26.6196 3.99662 29.2141 4.5095 31.6354 5.50933C34.0566 6.50916 36.2571 7.97634 38.111 9.82702C39.9803 11.6832 41.4631 13.8915 42.4739 16.3242C43.4847 18.7568 44.0034 21.3657 44 24V24Z" stroke="#7F7E7E" stroke-width="4" stroke-linecap="round" stroke-linejoin="round"/>
<path d="M44 24C41.082 24 33.032 22.9 25.827 26.063C18 29.5 12.333 34.831 9.86304 38.147" stroke="#7F7E7E" stroke-width="4" stroke-linecap="round" stroke-linejoin="round"/>
<path d="M16.5 5.45404C19.63 8.34304 26.46 15.698 29 23C31.54 30.302 32.48 39.28 33.06 41.835" stroke="#7F7E7E" stroke-width="4" stroke-linecap="round" stroke-linejoin="round"/>
<path d="M4.15399 21.5C7.93199 21.728 17.933 21.933 24.333 19.2C30.733 16.467 36.24 11.44 38.129 9.84503M5.49999 31.613C7.2623 35.8789 10.4407 39.4073 14.5 41.604" stroke="#7F7E7E" stroke-width="4" stroke-linecap="round" stroke-linejoin="round"/>
<path d="M4.00002 24C3.99303 18.8718 5.96289 13.9382 9.50002 10.225M24 4.00002C21.2868 3.99668 18.6014 4.54704 16.1081 5.6174C13.6149 6.68776 11.3664 8.25561 9.50002 10.225M32 5.66402C34.2776 6.66055 36.3499 8.07225 38.111 9.82701C39.9803 11.6832 41.4631 13.8915 42.4739 16.3242C43.4847 18.7568 44.0034 21.3657 44 24C44 26.462 43.555 28.821 42.74 31M24 44C26.6196 44.0034 29.2141 43.4905 31.6354 42.4907C34.0566 41.4909 36.2571 40.0237 38.111 38.173" stroke="#7F7E7E" stroke-width="4" stroke-linecap="round" stroke-linejoin="round"/>
</svg>
