<svg width="36" height="36" viewBox="0 0 36 36" fill="none" xmlns="http://www.w3.org/2000/svg">
<path d="M34.875 7.69923C33.609 8.24932 32.2695 8.61173 30.8988 8.77501C32.3393 7.93153 33.4226 6.5915 33.9455 5.00626C32.5836 5.80262 31.0961 6.36137 29.5467 6.65861C28.8943 5.97484 28.1096 5.43088 27.2404 5.0598C26.3712 4.68872 25.4356 4.49827 24.4905 4.50001C20.6641 4.50001 17.5676 7.55157 17.5676 11.3133C17.5649 11.8365 17.6248 12.3582 17.7462 12.8672C15.0024 12.7386 12.3156 12.0386 9.8578 10.8121C7.4 9.58566 5.22526 7.85966 3.47273 5.74454C2.8579 6.78103 2.53275 7.96364 2.53125 9.16876C2.53125 11.5313 3.76383 13.6195 5.625 14.843C4.52231 14.8168 3.44221 14.525 2.47641 13.9922V14.0766C2.47641 17.3813 4.86703 20.1305 8.03109 20.7563C7.4361 20.9149 6.82296 20.9952 6.20719 20.9953C5.77025 20.9961 5.33431 20.9537 4.9057 20.8688C5.78531 23.5758 8.34539 25.5445 11.378 25.6008C8.91378 27.4999 5.8884 28.5263 2.77734 28.5188C2.22512 28.5179 1.67341 28.4851 1.125 28.4203C4.28989 30.4413 7.96883 31.5102 11.7239 31.5C24.4758 31.5 31.4423 21.1149 31.4423 12.1078C31.4423 11.8125 31.4346 11.5172 31.4205 11.2289C32.7727 10.2671 33.9425 9.07181 34.875 7.69923V7.69923Z" fill="white" fill-opacity="0.46"/>
</svg>
