<svg width="46" height="46" viewBox="0 0 46 46" fill="none" xmlns="http://www.w3.org/2000/svg">
<path d="M36.4167 5.75C37.4333 5.75 38.4084 6.15387 39.1272 6.87276C39.8461 7.59165 40.25 8.56667 40.25 9.58333V36.4167C40.25 37.4333 39.8461 38.4084 39.1272 39.1272C38.4084 39.8461 37.4333 40.25 36.4167 40.25H9.58333C8.56667 40.25 7.59165 39.8461 6.87276 39.1272C6.15387 38.4084 5.75 37.4333 5.75 36.4167V9.58333C5.75 8.56667 6.15387 7.59165 6.87276 6.87276C7.59165 6.15387 8.56667 5.75 9.58333 5.75H36.4167ZM35.4583 35.4583V25.3C35.4583 23.6428 34.8 22.0536 33.6282 20.8818C32.4564 19.71 30.8672 19.0517 29.21 19.0517C27.5808 19.0517 25.6833 20.0483 24.7633 21.5433V19.4158H19.4158V35.4583H24.7633V26.0092C24.7633 24.5333 25.9517 23.3258 27.4275 23.3258C28.1392 23.3258 28.8217 23.6085 29.3249 24.1118C29.8281 24.615 30.1108 25.2975 30.1108 26.0092V35.4583H35.4583ZM13.1867 16.4067C14.0407 16.4067 14.8597 16.0674 15.4636 15.4636C16.0674 14.8597 16.4067 14.0407 16.4067 13.1867C16.4067 11.4042 14.9692 9.9475 13.1867 9.9475C12.3276 9.9475 11.5037 10.2888 10.8962 10.8962C10.2888 11.5037 9.9475 12.3276 9.9475 13.1867C9.9475 14.9692 11.4042 16.4067 13.1867 16.4067M15.8508 35.4583V19.4158H10.5417V35.4583H15.8508V35.4583Z" fill="#7F7E7E"/>
</svg>
