<svg width="1440" height="944" viewBox="0 0 1440 944" fill="none" xmlns="http://www.w3.org/2000/svg">
<path d="M0 0H1440V944H0V0Z" fill="#170136"/>
<mask id="mask0_256_19" style="mask-type:alpha" maskUnits="userSpaceOnUse" x="0" y="0" width="1440" height="944">
<path d="M0 0H1440V944H0V0Z" fill="#170136"/>
</mask>
<g mask="url(#mask0_256_19)">
<g filter="url(#filter0_f_256_19)">
<path fill-rule="evenodd" clip-rule="evenodd" d="M259.914 -10.9553C338.017 -35.7529 412.004 -103.6 490.946 -81.7163C568.196 -60.3011 645.844 15.504 648.71 96.826C651.943 188.568 544.261 242.132 505.279 324.945C486.296 365.271 484.538 409.819 480.424 454.325C472.864 536.122 550.546 682.047 470.947 696.404C374.081 713.876 358.291 493.362 259.914 494.098C160.366 494.844 145.492 684.322 47.0787 699.578C-29.6007 711.464 -87.3022 619.329 -131.902 554.836C-178.694 487.174 -212.246 407.646 -211.999 324.945C-211.752 242.342 -191.189 150.844 -130.532 95.8574C-70.8292 41.735 22.2374 63.7041 99.4919 42.5699C154.782 27.4445 205.262 6.3969 259.914 -10.9553Z" fill="black"/>
<path fill-rule="evenodd" clip-rule="evenodd" d="M1058.17 319.365C1117.89 323.131 1161.27 373.661 1212.6 404.932C1265.9 437.407 1333.97 452.107 1365.45 506.579C1397.76 562.477 1402.16 635.281 1381.11 696.483C1361.25 754.224 1313.99 806.431 1256.33 823.866C1202.59 840.115 1152.16 774.548 1096.64 782.498C1054.18 788.578 1039.9 860.564 997.026 860.998C956.509 861.407 939.056 806.367 904.755 784.437C850.802 749.943 758.983 757.442 738.872 695.95C720.078 638.482 798.674 595.314 825.165 541.073C850.482 489.235 849.351 424.189 890.912 384.642C935.416 342.295 997.332 315.527 1058.17 319.365Z" fill="#6200EE"/>
</g>
</g>
<defs>
<filter id="filter0_f_256_19" x="-912" y="-786" width="3006" height="2347" filterUnits="userSpaceOnUse" color-interpolation-filters="sRGB">
<feFlood flood-opacity="0" result="BackgroundImageFix"/>
<feBlend mode="normal" in="SourceGraphic" in2="BackgroundImageFix" result="shape"/>
<feGaussianBlur stdDeviation="350" result="effect1_foregroundBlur_256_19"/>
</filter>
</defs>
</svg>
