<svg width="90" height="511" viewBox="0 0 90 511" fill="none" xmlns="http://www.w3.org/2000/svg">
<path d="M0 35C0 15.67 15.67 0 35 0H55C74.33 0 90 15.67 90 35V476C90 495.33 74.33 511 55 511H35C15.67 511 0 495.33 0 476V35Z" fill="#121111"/>
<path d="M40.05 52.35V46C40.05 50.2 43.45 53.6 47.65 53.6H57.65C57.65 49.4 54.25 46 50.05 46H40.05C35.2 46 31.3 49.95 31.3 54.8V61.15C36.15 61.15 40.05 57.2 40.05 52.35ZM48.85 74.7V81C48.85 76.85 45.45 73.45 41.3 73.45H31.3C31.3 77.65 34.65 81 38.85 81H48.85C53.7 81 57.65 77.1 57.65 72.25V65.9C52.8 65.9 48.85 69.85 48.85 74.7ZM36.05 59.85C36.05 63.65 39.15 66.75 42.95 66.75H53.6C53.6 62.95 50.5 59.85 46.7 59.85H36.05Z" fill="white"/>
</svg>
