<svg width="27" height="35" viewBox="0 0 27 35" fill="none" xmlns="http://www.w3.org/2000/svg">
<path d="M9.05 6.35V-2.38419e-06C9.05 4.2 12.45 7.6 16.65 7.6H26.65C26.65 3.4 23.25 -2.38419e-06 19.05 -2.38419e-06H9.05C4.2 -2.38419e-06 0.3 3.95 0.3 8.8V15.15C5.15 15.15 9.05 11.2 9.05 6.35ZM17.85 28.7V35C17.85 30.85 14.45 27.45 10.3 27.45H0.3C0.3 31.65 3.65 35 7.85 35H17.85C22.7 35 26.65 31.1 26.65 26.25V19.9C21.8 19.9 17.85 23.85 17.85 28.7ZM5.05 13.85C5.05 17.65 8.15 20.75 11.95 20.75H22.6C22.6 16.95 19.5 13.85 15.7 13.85H5.05Z" fill="white"/>
</svg>
